<?xml version="1.0" standalone="no"?>
<!DOCTYPE svg PUBLIC "-//W3C//DTD SVG 20010904//EN"
 "http://www.w3.org/TR/2001/REC-SVG-20010904/DTD/svg10.dtd">
<svg version="1.0" xmlns="http://www.w3.org/2000/svg"
 width="1024.000000pt" height="1024.000000pt" viewBox="0 0 1024.000000 1024.000000"
 preserveAspectRatio="xMidYMid meet">

<g transform="translate(0.000000,1024.000000) scale(0.100000,-0.100000)"
fill="#000000" stroke="none">
<path d="M3825 7752 c39 -20 102 -67 141 -104 115 -110 164 -225 164 -388 0
-102 -11 -148 -88 -390 l-59 -185 -63 -3 c-51 -2 -72 2 -116 23 -52 26 -134
105 -134 131 0 7 -5 16 -12 20 -8 5 -10 -9 -5 -55 10 -119 102 -265 213 -342
l42 -28 -34 -113 c-19 -62 -77 -246 -129 -408 -171 -538 -222 -702 -310 -985
-48 -154 -115 -370 -150 -480 -35 -110 -85 -270 -110 -355 -143 -479 -302
-934 -380 -1090 -97 -193 -239 -326 -435 -407 l-55 -23 1135 3 c1109 2 1136 2
1184 22 27 11 51 25 53 30 2 6 -31 15 -77 21 -116 16 -229 73 -304 155 -100
108 -132 200 -123 358 4 83 15 127 77 326 39 127 77 248 84 270 l12 40 529 3
c453 2 542 0 610 -13 159 -32 270 -92 390 -210 118 -117 171 -220 196 -383 23
-151 -25 -297 -131 -403 -87 -88 -191 -134 -335 -148 -68 -7 -69 -8 -40 -20
17 -7 63 -21 104 -32 66 -17 112 -19 440 -19 324 0 374 2 432 18 168 47 292
170 344 342 9 31 19 109 22 178 3 67 9 122 14 122 6 0 85 34 110 47 10 6 21
-85 21 -169 -2 -203 -100 -399 -265 -530 -27 -21 -45 -38 -40 -38 29 0 197 35
268 55 391 114 683 480 765 960 27 158 27 391 0 573 -19 129 -67 327 -95 387
-8 17 -23 53 -34 82 -86 222 -227 428 -423 619 -246 240 -512 391 -893 508
-315 97 -454 159 -575 255 -134 107 -215 231 -265 405 -35 123 -34 190 5 248
53 80 55 78 52 -39 -4 -141 11 -228 59 -322 48 -97 131 -179 226 -224 61 -29
77 -32 158 -31 130 1 189 26 279 118 l69 71 71 -70 c112 -111 272 -183 496
-224 58 -10 112 -21 120 -22 13 -4 15 108 18 949 l2 952 -1647 0 -1648 -1 70
-37z m2920 -166 l50 -11 -1 -55 -1 -54 -94 3 c-233 6 -407 -87 -498 -267 -34
-68 -47 -73 -45 -20 1 22 -4 35 -15 40 -15 6 -15 7 0 7 9 1 19 10 22 21 4 16
0 20 -21 19 -24 0 -24 -1 -7 -8 16 -7 13 -9 -19 -15 -21 -4 -41 -5 -44 -2 -3
3 6 6 19 7 22 0 23 1 4 9 l-20 9 20 1 20 1 -20 10 c-14 6 -5 7 30 4 l50 -4
-44 10 c-32 8 -40 13 -30 20 11 7 11 9 1 9 -23 0 39 100 91 145 58 51 136 92
220 116 73 21 254 24 332 5z m-1970 -13 l70 -7 -75 -12 -75 -11 65 -3 c70 -3
67 -5 -25 -17 l-60 -7 60 -7 60 -6 -50 -3 c-45 -2 -47 -3 -20 -10 29 -7 29 -8
-10 -10 -35 -2 -37 -3 -15 -10 18 -6 5 -9 -50 -11 l-75 -2 65 -7 c49 -5 55 -7
25 -8 -22 -1 -51 -5 -65 -9 -24 -7 -23 -8 10 -14 33 -6 32 -7 -15 -9 l-50 -3
45 -7 45 -7 -55 -3 -55 -3 40 -7 40 -7 -35 -3 c-19 -1 -46 -6 -60 -11 -23 -8
-23 -8 5 -5 17 3 37 1 45 -5 16 -9 -12 -14 -80 -11 -31 1 -32 0 -10 -7 23 -7
22 -9 -15 -15 -58 -11 -67 -17 -17 -12 53 5 45 -12 -11 -21 l-42 -7 35 -7 35
-6 -32 -2 c-40 -1 -54 -21 -16 -22 27 -2 27 -2 3 -6 -51 -8 -57 -14 -30 -28
l25 -14 -27 -1 c-16 0 -28 2 -28 5 0 3 10 40 21 82 27 99 76 195 129 256 l42
47 81 0 c45 0 114 -3 152 -7z m1325 -13 c12 -8 9 -10 -11 -10 -15 0 -38 -9
-53 -21 l-27 -21 -38 25 c-21 14 -54 27 -72 30 -19 2 16 4 76 5 61 1 117 -3
125 -8z m-455 -35 c84 -22 176 -67 240 -117 54 -42 55 -44 55 -94 l0 -50 -69
33 c-98 46 -229 82 -347 94 -82 9 -121 8 -212 -5 -187 -28 -319 -79 -479 -188
-284 -191 -471 -521 -476 -840 -2 -88 -4 -105 -14 -91 -11 14 -37 78 -49 121
-4 14 -54 17 -54 2 0 -5 -8 -10 -17 -9 -13 0 -14 2 -4 6 9 4 10 8 2 12 -13 8
0 129 25 227 66 265 234 505 476 683 141 102 358 195 518 221 41 6 82 13 90
15 35 9 260 -5 315 -20z m1075 -196 c0 -5 -4 -7 -10 -4 -5 3 -7 0 -5 -8 3 -7
1 -24 -5 -38 -10 -23 -10 -23 -6 6 l5 30 -14 -32 c-10 -21 -20 -31 -29 -27 -8
3 -23 1 -33 -5 -17 -9 -16 -10 5 -18 21 -8 21 -9 -15 -22 -62 -23 -122 -70
-166 -131 -23 -32 -50 -60 -59 -63 -15 -4 -16 -2 -7 14 6 13 6 19 -1 19 -5 0
-10 -5 -10 -11 0 -5 -5 -7 -12 -3 -7 4 -8 3 -4 -4 9 -15 -24 -16 -44 -1 -12 9
-11 10 8 6 27 -6 20 8 -8 16 -11 3 -18 1 -15 -3 3 -5 -1 -10 -7 -13 -7 -3 2
-10 20 -17 18 -7 31 -15 28 -18 -3 -2 -19 1 -36 8 -28 12 -30 16 -24 44 19 88
84 186 150 227 20 12 61 30 92 40 63 20 202 26 202 8z m30 -11 c0 18 18 15 29
-6 7 -14 6 -19 -4 -19 -7 0 -11 7 -8 16 3 11 0 10 -11 -3 -12 -15 -16 -16 -16
-5 0 12 -2 12 -10 -1 -11 -17 -13 -9 -4 15 5 13 8 14 15 3 7 -10 9 -10 9 0z
m-2227 -15 c-7 -2 -19 -2 -25 0 -7 3 -2 5 12 5 14 0 19 -2 13 -5z m-16 -29
c-3 -3 -12 -4 -19 -1 -8 3 -5 6 6 6 11 1 17 -2 13 -5z m-20 -30 c-3 -3 -12 -4
-19 -1 -8 3 -5 6 6 6 11 1 17 -2 13 -5z m1166 -20 c247 -56 450 -204 543 -397
37 -78 61 -190 49 -233 -5 -16 -7 -34 -7 -40 1 -6 -8 -19 -20 -30 -23 -19 -23
-19 -5 2 23 28 22 41 -3 19 -11 -10 -20 -15 -20 -12 0 4 0 9 0 12 0 3 2 4 3 3
7 -5 37 24 37 34 0 6 -7 5 -15 -2 -8 -7 -15 -9 -15 -5 0 5 -10 0 -22 -11 -19
-15 -20 -16 -9 -1 7 9 9 17 3 17 -5 0 -22 -25 -36 -55 -47 -95 -107 -126 -176
-90 -37 19 -50 43 -50 90 0 74 88 121 148 79 22 -15 22 -15 22 35 0 28 -9 74
-20 103 -16 41 -17 55 -7 67 11 14 10 15 -7 1 -18 -14 -19 -13 -13 2 4 13 2
16 -11 12 -12 -4 -10 1 7 15 13 12 18 21 13 21 -6 0 -14 -4 -17 -10 -3 -5 -11
-10 -17 -10 -6 0 -3 10 8 21 19 22 19 22 -3 8 -25 -15 -46 -4 -23 12 12 8 10
9 -6 4 -30 -8 -51 19 -33 43 13 15 12 16 -3 4 -14 -11 -23 -8 -65 21 -147 105
-363 161 -524 136 -375 -58 -632 -293 -730 -669 -13 -47 -23 -86 -24 -87 0 -1
-12 1 -25 4 -22 6 -23 7 -4 14 19 7 19 8 -1 9 l-20 1 20 9 20 9 -20 1 -20 1
20 9 20 9 -20 1 -20 1 20 9 c19 8 19 9 -2 9 -13 1 -23 -3 -23 -9 0 -5 -5 -10
-11 -10 -5 0 -8 4 -5 8 2 4 1 14 -5 22 -7 12 -9 10 -9 -7 0 -13 -6 -23 -14
-23 -39 0 14 197 90 338 141 258 364 423 659 485 97 21 307 21 398 1z m-1286
-50 c-3 -3 -12 -4 -19 -1 -8 3 -5 6 6 6 11 1 17 -2 13 -5z m13 -30 c0 -2 -9
-4 -20 -4 -11 0 -20 4 -20 9 0 5 9 7 20 4 11 -3 20 -7 20 -9z m-35 -24 c3 -5
1 -10 -4 -10 -6 0 -11 5 -11 10 0 6 2 10 4 10 3 0 8 -4 11 -10z m2452 -176
c-4 -103 -9 -189 -12 -192 -3 -3 -5 3 -5 12 0 12 -5 16 -15 12 -18 -7 -20 10
-2 18 6 4 1 4 -12 2 -18 -4 -21 -2 -12 7 18 18 13 29 -8 17 -30 -15 -38 -12
-13 6 12 8 22 20 22 26 0 6 -8 4 -18 -5 -30 -27 -38 -19 -11 10 l24 27 -27
-17 c-38 -24 -46 -21 -14 4 14 11 26 25 26 31 0 7 -10 2 -22 -9 -13 -11 -30
-24 -38 -28 -13 -8 -13 -7 -1 8 8 10 9 17 3 17 -29 0 8 118 55 178 16 20 71
62 82 62 2 0 1 -84 -2 -186z m-269 19 c-23 -83 13 -380 61 -501 23 -58 71
-134 122 -196 l33 -38 -42 21 c-63 32 -115 90 -153 169 -19 39 -41 71 -49 72
-10 1 -11 3 -2 7 22 9 13 23 -15 24 -23 1 -24 2 -6 6 32 6 26 43 -7 44 -23 2
-23 2 -2 6 12 2 22 9 22 14 0 6 -14 8 -32 5 l-33 -6 35 14 35 14 -35 3 -35 2
35 7 35 7 -40 3 c-29 2 -33 4 -15 7 43 8 46 23 4 18 l-39 -5 40 14 40 14 -45
-4 -45 -4 45 15 45 14 -45 -4 -45 -4 40 14 40 15 -40 -6 c-41 -6 -41 9 0 19
15 3 12 5 -10 7 -30 2 -30 2 -5 10 l25 8 -24 1 c-24 1 -24 1 -5 16 19 15 19
15 -1 9 -20 -6 -20 -5 -1 10 15 12 16 16 5 16 -12 0 -12 2 1 10 13 9 13 10 0
11 -10 0 -8 3 5 9 14 6 15 9 5 10 -11 1 -10 3 3 9 10 4 18 11 17 15 -1 5 4 13
12 18 9 7 7 8 -10 5 -12 -3 -20 -1 -16 4 3 5 13 9 23 9 10 0 30 18 45 40 14
22 28 40 30 40 3 0 0 -17 -6 -37z m-191 21 c-3 -3 -12 -4 -19 -1 -8 3 -5 6 6
6 11 1 17 -2 13 -5z m-861 -48 c27 -27 34 -42 34 -74 0 -82 -85 -135 -155 -97
-38 20 -55 52 -55 101 0 51 53 104 105 104 29 0 45 -8 71 -34z m348 -99 l38
-30 -45 -12 c-25 -6 -67 -26 -94 -43 l-48 -32 -5 98 c-3 53 -4 101 -2 105 5
10 103 -45 156 -86z m623 47 c-3 -3 -12 -4 -19 -1 -8 3 -5 6 6 6 11 1 17 -2
13 -5z m-1445 -171 c-17 -43 -61 -170 -98 -282 l-68 -203 -55 6 c-62 7 -66 10
-55 27 4 7 7 31 5 54 -2 47 45 195 85 264 15 25 43 66 63 90 37 45 142 134
149 126 3 -2 -9 -39 -26 -82z m216 10 c69 -70 105 -142 161 -318 48 -154 93
-250 162 -351 66 -95 187 -210 278 -264 62 -37 92 -60 78 -60 -3 0 -23 6 -45
14 -34 12 -41 13 -46 1 -7 -18 7 -27 31 -19 14 4 15 4 4 -4 -7 -5 -10 -15 -7
-21 12 -19 -6 -13 -109 39 -181 90 -268 179 -364 375 -72 145 -199 511 -217
625 -9 55 6 52 74 -17z m576 -78 c-12 -9 -14 -14 -6 -15 7 0 10 -5 6 -12 -4
-7 -3 -8 5 -4 6 4 9 11 6 16 -3 4 4 10 14 13 18 4 18 3 -1 -47 -26 -67 -25
-143 1 -194 39 -77 132 -134 223 -136 32 0 58 -5 58 -11 0 -5 5 -3 10 5 9 13
11 13 20 0 7 -11 10 -11 10 -2 0 7 5 10 10 7 6 -3 10 -1 10 4 0 6 5 11 10 11
21 0 9 -29 -22 -56 -58 -48 -114 -67 -183 -62 -186 15 -321 199 -272 369 17
57 76 129 105 129 13 0 12 -3 -4 -15z m955 -119 c41 -29 41 -29 41 -94 0 -58
-2 -63 -16 -51 -31 25 -73 96 -93 157 -27 78 -26 84 3 46 14 -16 43 -43 65
-58z m-2466 -143 c-7 -2 -19 -2 -25 0 -7 3 -2 5 12 5 14 0 19 -2 13 -5z m230
0 c-7 -2 -19 -2 -25 0 -7 3 -2 5 12 5 14 0 19 -2 13 -5z m-3 -28 c0 -8 -2 -15
-4 -15 -2 0 -6 7 -10 15 -3 8 -1 15 4 15 6 0 10 -7 10 -15z m-365 -15 c-5 -17
-11 -41 -19 -85 -1 -5 -5 -16 -9 -22 -5 -8 -3 -13 4 -13 7 0 4 -7 -7 -15 -14
-11 -16 -15 -4 -15 12 0 11 -3 -3 -11 -10 -6 -20 -9 -21 -7 -4 5 55 188 60
188 3 0 3 -9 -1 -20z m102 4 c-3 -3 -12 -4 -19 -1 -8 3 -5 6 6 6 11 1 17 -2
13 -5z m583 -136 c0 -7 -14 -8 -37 -4 -21 3 -46 6 -55 6 -10 0 -18 3 -18 8 0
4 25 5 55 4 30 -2 55 -9 55 -14z m-730 -52 c0 -3 -4 -8 -10 -11 -5 -3 -10 -1
-10 4 0 6 5 11 10 11 6 0 10 -2 10 -4z m1180 -536 c43 -113 100 -261 128 -330
27 -69 53 -135 56 -147 l7 -23 -365 0 c-201 0 -366 3 -366 6 0 6 75 240 242
758 l90 279 65 -169 c36 -93 100 -261 143 -374z m-718 499 c56 -12 122 -41
133 -59 4 -6 3 -10 -2 -9 -21 4 -33 -2 -33 -16 0 -8 -7 -15 -16 -15 -8 0 -12
-4 -9 -10 3 -5 -1 -10 -9 -10 -9 0 -16 -6 -16 -14 0 -11 -10 -9 -42 9 -44 25
-89 36 -58 14 11 -8 5 -9 -25 -5 -93 12 -223 18 -228 10 -2 -5 25 -10 62 -11
36 -1 84 -6 106 -11 31 -8 21 -9 -50 -6 -97 4 -102 0 -15 -16 l55 -9 -65 4
c-36 3 -79 7 -96 9 -17 3 -53 1 -80 -3 -47 -8 -45 -9 36 -11 145 -4 151 -15 8
-15 l-136 0 37 32 c70 63 228 133 326 146 55 7 64 7 117 -4z m-243 -193 c-3
-3 -53 -6 -113 -7 -166 -2 -185 -17 -26 -20 l135 -3 -140 -6 c-77 -3 -141 -5
-142 -5 -2 1 4 11 13 23 14 21 23 22 146 22 72 0 129 -2 127 -4z m401 -41 c0
-2 -12 -35 -26 -72 -14 -38 -43 -120 -64 -183 -21 -63 -47 -134 -57 -158 l-18
-43 -35 38 c-19 21 -24 28 -10 17 38 -32 59 -42 38 -18 -14 16 -15 23 -5 34
10 10 9 11 -2 5 -11 -6 -13 -4 -7 11 4 10 4 15 0 11 -4 -4 -13 -2 -21 4 -9 9
-13 8 -13 0 0 -6 5 -11 10 -11 6 0 10 -4 10 -9 0 -5 -7 -8 -16 -7 -11 0 -18
-7 -19 -22 -1 -13 -7 -27 -14 -32 -9 -5 -10 -10 -3 -14 6 -4 10 -12 8 -19 -1
-7 -1 -9 1 -4 6 9 23 -1 23 -14 0 -6 -5 -7 -12 -3 -8 5 -9 2 -5 -9 11 -28 -1
-19 -18 13 -46 89 9 303 102 396 56 56 153 113 153 89z m-450 -21 c-35 -7
-260 -9 -260 -2 0 4 62 7 138 7 75 -1 130 -3 122 -5z m-70 -30 c-58 -7 -210
-8 -210 -1 0 4 53 6 118 6 64 -1 106 -3 92 -5z m-67 -31 c-29 -2 -78 -2 -110
0 -32 2 -8 3 52 3 61 0 87 -1 58 -3z m-35 -30 c-27 -2 -69 -2 -95 0 -27 2 -5
3 47 3 52 0 74 -1 48 -3z m-20 -28 c3 -3 -27 -5 -67 -5 -43 0 -70 4 -66 10 5
9 124 5 133 -5z m-23 -26 c-4 -6 -19 -9 -33 -8 -15 1 -35 -1 -44 -5 -9 -4 -25
-6 -35 -3 -12 3 -7 6 12 7 l30 2 -30 8 c-23 6 -14 8 38 9 46 1 66 -2 62 -10z
m303 -66 c-11 -27 -32 -58 -47 -71 -17 -16 -20 -22 -8 -18 24 8 21 3 -15 -24
-31 -22 -32 -22 -14 -2 29 33 4 26 -29 -8 -16 -16 -25 -30 -21 -30 4 0 -2 -16
-14 -35 -12 -19 -18 -35 -13 -35 4 0 3 -4 -2 -8 -6 -4 -24 -36 -40 -72 -44
-99 -47 -224 -8 -355 5 -19 5 -19 -15 -2 -21 19 -40 8 -26 -15 5 -7 3 -8 -5
-4 -7 5 -10 15 -7 25 6 15 5 15 -7 0 -10 -14 -14 -14 -25 -3 -16 17 -16 29 1
16 8 -7 16 -6 24 3 10 11 10 17 -3 29 -8 9 -18 16 -22 16 -3 0 -1 -5 6 -12 17
-17 15 -33 -2 -19 -17 15 -30 -13 -17 -36 10 -18 3 -53 -10 -53 -5 0 -15 12
-23 28 -59 114 -48 315 25 453 74 139 230 274 321 278 15 1 15 -3 -4 -46z
m-323 32 c-21 -9 -125 -22 -125 -15 0 13 9 15 72 17 35 1 59 0 53 -2z m-19
-32 c-10 -10 -116 -21 -116 -12 0 9 32 16 84 18 22 0 36 -2 32 -6z m1568 -8
c-10 -8 -23 -14 -29 -14 -5 0 -1 6 9 14 11 8 24 15 30 15 5 0 1 -7 -10 -15z
m81 -9 c19 -10 33 -31 46 -67 22 -63 112 -216 168 -287 88 -110 230 -194 331
-194 149 0 242 109 227 266 l-6 64 59 -26 60 -25 0 -70 c0 -151 -59 -256 -178
-314 -51 -25 -67 -28 -157 -27 -89 0 -108 4 -173 32 -40 17 -86 41 -102 52
-26 18 -28 24 -19 43 10 21 10 21 -6 2 -14 -17 -17 -18 -31 -3 -14 14 -14 19
1 49 l16 34 -22 -28 -22 -29 -53 56 -54 56 21 37 21 38 -25 -29 c-16 -18 -27
-24 -31 -17 -4 6 -3 11 2 11 5 0 14 11 20 25 17 38 15 41 -9 11 -11 -14 -24
-24 -29 -21 -5 3 2 17 16 32 13 14 22 29 18 32 -3 3 -15 -5 -26 -19 l-20 -24
-19 24 c-23 31 -23 39 1 70 30 38 24 47 -10 15 -37 -36 -39 -25 -3 23 l27 37
-32 -29 c-38 -36 -42 -26 -6 21 28 37 22 44 -13 11 -13 -12 -26 -19 -29 -15
-3 3 6 17 21 32 16 14 26 27 23 30 -2 3 -15 -5 -27 -16 -19 -18 -25 -19 -32
-8 -13 21 -11 25 19 49 l27 21 -35 -16 -35 -16 30 26 30 27 -32 -16 c-18 -9
-33 -14 -33 -11 0 3 15 14 33 25 37 23 29 27 -12 5 -16 -8 -31 -11 -35 -8 -3
4 11 14 31 24 34 15 35 17 10 15 -15 -2 -30 -6 -34 -9 -3 -4 -11 -7 -17 -7 -6
0 0 9 13 19 14 10 31 17 38 14 7 -3 13 0 13 6 0 15 12 14 45 -3z m-1680 -16
c-3 -5 -24 -10 -46 -10 -50 0 -51 -18 -1 -23 l37 -4 -42 -1 c-36 -2 -43 1 -43
17 0 16 8 21 43 24 23 2 46 4 50 5 5 1 5 -2 2 -8z m-35 -60 c0 -5 -17 -9 -37
-9 -38 1 -38 1 -8 9 43 11 45 11 45 0z m2004 -36 l84 -26 -23 -34 c-13 -19
-29 -51 -36 -72 l-12 -36 -32 37 c-30 35 -95 146 -95 162 0 4 7 5 15 1 8 -3
53 -17 99 -32z m-2026 9 c-10 -2 -26 -2 -35 0 -10 3 -2 5 17 5 19 0 27 -2 18
-5z m-18 -17 c0 -9 -30 -14 -35 -6 -4 6 3 10 14 10 12 0 21 -2 21 -4z m-7 -33
c-7 -2 -19 -2 -25 0 -7 3 -2 5 12 5 14 0 19 -2 13 -5z m608 -30 c13 -16 12
-17 -3 -4 -10 7 -18 15 -18 17 0 8 8 3 21 -13z m-6 -23 c10 -11 16 -20 13 -20
-3 0 -13 9 -23 20 -10 11 -16 20 -13 20 3 0 13 -9 23 -20z m-618 4 c-3 -3 -12
-4 -19 -1 -8 3 -5 6 6 6 11 1 17 -2 13 -5z m668 -22 c-3 -3 -11 0 -18 7 -9 10
-8 11 6 5 10 -3 15 -9 12 -12z m1702 -9 c88 -58 43 -198 -63 -198 -64 0 -97
36 -98 105 -1 46 3 55 32 81 38 34 88 39 129 12z m-1789 -176 l29 -12 -14 -47
-14 -48 -58 0 c-32 0 -61 3 -65 8 -4 4 -22 13 -39 19 l-32 13 35 -5 35 -5 -40
19 c-43 21 -35 28 12 10 37 -14 22 0 -25 23 -20 10 -29 16 -19 13 61 -17 71
-16 32 5 -22 11 -33 19 -25 17 8 -3 26 -7 40 -11 19 -5 17 -2 -10 14 -22 13
-26 18 -13 15 38 -10 47 4 21 32 -23 25 -23 25 -1 14 36 -19 40 -12 8 15 -21
17 -23 22 -8 15 31 -16 37 -14 22 7 -7 9 13 -9 44 -41 31 -32 69 -63 85 -70z
m2255 67 c150 -78 275 -172 398 -302 187 -196 280 -393 278 -587 -1 -67 -15
-158 -18 -117 -1 6 -6 12 -12 12 -5 0 -7 -4 -4 -10 3 -5 1 -10 -6 -10 -6 0 -9
8 -6 20 3 11 1 20 -3 20 -5 0 -11 -8 -13 -17 -3 -11 -5 -8 -6 9 -1 21 -5 26
-17 21 -10 -4 -12 -8 -5 -13 7 -4 2 -11 -14 -18 -32 -15 -38 -15 -29 0 4 6 6
29 6 52 -1 22 3 43 10 48 10 6 9 8 -3 8 -21 0 -32 68 -15 89 8 11 8 13 0 8
-17 -10 -27 23 -12 40 9 11 9 13 -1 11 -6 -2 -31 36 -54 84 l-43 88 21 22 20
22 -23 -19 c-20 -17 -25 -17 -32 -5 -4 8 -22 32 -39 54 -17 21 -28 43 -24 49
3 5 2 7 -4 4 -5 -3 -34 19 -64 49 -30 30 -84 78 -121 105 -48 36 -65 55 -62
67 5 13 4 14 -4 4 -8 -12 -15 -11 -40 2 -17 9 -38 26 -46 38 -9 12 -16 17 -16
11 0 -6 -9 -9 -20 -6 -16 4 -19 10 -14 27 12 34 10 59 -4 64 -10 3 -12 -6 -10
-33 2 -25 -2 -39 -11 -43 -10 -3 -12 4 -8 34 3 22 9 60 12 87 7 52 12 54 58
31z m-2394 -30 c14 -12 -19 -1 -35 12 -18 14 -18 14 6 3 14 -6 27 -13 29 -15z
m-481 -1 c-10 -2 -26 -2 -35 0 -10 3 -2 5 17 5 19 0 27 -2 18 -5z m-15 -30
c-13 -2 -35 -2 -50 0 -16 2 -5 4 22 4 28 0 40 -2 28 -4z m12 -23 c4 -6 -12
-10 -42 -9 -43 1 -45 2 -18 9 44 11 53 11 60 0z m2842 -22 c-3 -8 -6 -5 -6 6
-1 11 2 17 5 13 3 -3 4 -12 1 -19z m-2837 -8 c0 -7 -16 -9 -40 -7 -58 6 -62
17 -7 17 26 0 47 -5 47 -10z m0 -30 c0 -12 -64 -12 -100 0 -19 6 -9 8 38 9 35
1 62 -3 62 -9z m5 -42 c-3 -39 25 -130 62 -200 91 -174 279 -281 465 -264 37
3 77 10 90 15 13 4 35 11 51 15 l27 6 0 -69 0 -68 -146 -13 c-176 -15 -252 -6
-360 46 -64 30 -214 152 -214 173 0 5 10 13 23 20 17 9 18 10 2 6 -11 -4 -22
-7 -25 -8 -3 -1 -6 2 -7 6 -1 5 -10 15 -20 23 -17 12 -16 13 12 15 30 2 30 2
-5 9 -22 5 -27 8 -13 9 12 0 25 6 28 11 4 6 -6 9 -26 8 -28 -3 -34 1 -46 30
-13 31 -12 32 12 32 14 0 25 5 25 11 0 7 -10 9 -24 5 -14 -3 -28 -2 -31 4 -3
5 3 10 14 10 12 0 21 5 21 11 0 6 -8 8 -19 4 -11 -3 -22 -1 -26 5 -4 6 5 10
22 11 l28 1 -30 8 -30 8 35 2 35 3 -40 7 c-39 7 -39 7 -7 9 39 1 43 16 5 19
-43 3 -40 12 5 12 23 0 42 4 42 9 0 5 -8 7 -18 5 -9 -3 -28 -1 -42 5 -21 8
-17 10 29 10 30 1 51 4 48 8 -4 3 -22 6 -40 5 -17 -1 -39 3 -47 8 -11 7 -1 10
34 10 27 0 46 3 43 7 -4 3 -25 6 -47 5 -22 -1 -40 3 -40 8 0 6 31 10 73 10 70
0 74 -1 72 -22z m2858 -99 c53 -27 72 -94 45 -154 -13 -29 -55 -55 -88 -55
-53 0 -110 57 -110 110 0 75 88 132 153 99z m-766 -82 c226 -76 316 -130 447
-267 68 -72 94 -109 130 -183 57 -118 62 -134 39 -140 -15 -4 -15 -5 2 -6 13
-1 21 -8 22 -21 2 -17 -4 -20 -36 -20 -21 0 -60 -3 -87 -6 -27 -4 -46 -3 -41
1 4 5 37 12 75 16 l67 7 -70 0 c-91 1 -101 4 -40 12 l50 7 -48 1 c-29 1 -46 6
-42 12 3 6 15 10 26 10 10 0 19 5 19 11 0 7 -11 8 -30 4 -43 -10 -37 9 8 22
l37 11 -45 -4 -45 -4 30 15 30 16 -31 -4 c-28 -3 -35 2 -57 39 l-25 42 24 13
c13 7 22 14 20 16 -2 3 -14 -1 -26 -7 -19 -10 -26 -9 -43 9 -21 20 -21 21 -1
43 l19 23 -22 -19 c-22 -18 -23 -18 -76 30 -72 66 -184 128 -309 172 l-103 36
-235 3 c-129 2 -356 4 -505 6 l-270 2 -6 35 -6 35 -2 -37 c0 -21 -5 -38 -11
-38 -5 0 -11 17 -12 38 l-1 37 -7 -45 c-6 -46 -16 -40 -23 15 -4 27 -4 26 -6
-7 0 -21 -5 -38 -11 -38 -5 0 -11 17 -11 38 -2 33 -2 34 -6 7 -7 -55 -17 -61
-23 -15 l-7 45 -1 -37 c-1 -21 -6 -38 -12 -38 -5 0 -11 17 -12 38 l-1 37 -4
-37 c-2 -21 -8 -38 -14 -38 -5 0 -10 17 -11 38 l-1 37 -4 -37 c-2 -21 -8 -38
-14 -38 -5 0 -10 17 -10 38 l-2 37 -7 -40 c-6 -40 -15 -35 -23 15 -3 17 -5 14
-6 -12 0 -21 -5 -38 -10 -38 -6 0 -12 17 -14 38 l-4 37 -1 -43 c-2 -52 -21
-47 -24 6 -1 37 -1 37 -8 -8 -4 -25 -8 -39 -8 -31 -2 11 -5 11 -17 1 -17 -14
-21 -7 -28 45 -3 22 -4 18 -6 -14 0 -24 -4 -41 -8 -37 -4 4 -6 22 -5 41 2 19
-2 35 -8 35 -5 0 -10 -18 -10 -41 l0 -40 -50 3 -50 3 0 78 0 78 768 -3 767 -3
112 -38z m478 -74 c-6 -37 -25 -70 -25 -45 0 7 -3 11 -7 10 -10 -4 -58 30 -52
36 6 6 72 34 83 35 4 1 5 -16 1 -36z m535 -65 c20 -24 44 -56 54 -73 l19 -30
-28 25 -28 25 13 -25 13 -25 -27 24 c-34 32 -34 15 2 -22 27 -29 27 -30 2 -16
-14 8 -31 14 -37 14 -7 0 -12 3 -10 7 3 9 -35 48 -48 48 -28 0 -34 25 -18 72
14 45 16 46 37 33 11 -8 37 -33 56 -57z m-3272 -68 c12 -22 36 -56 53 -75 29
-33 30 -38 19 -65 -11 -27 -17 -30 -59 -31 -25 -1 -59 -5 -76 -9 -23 -6 -12
-8 45 -10 l75 -3 -74 -8 c-41 -5 -76 -11 -79 -14 -3 -3 28 -6 69 -7 70 -2 71
-2 17 -5 -32 -2 -58 -9 -58 -14 0 -7 20 -10 50 -7 28 1 50 0 50 -4 0 -5 -35
-8 -77 -9 -72 -1 -75 -2 -38 -11 22 -5 55 -7 73 -4 17 2 32 1 32 -5 0 -5 -24
-9 -52 -10 -92 -2 -113 -17 -28 -20 41 -1 59 -4 40 -6 -19 -2 -55 -6 -80 -10
-44 -7 -43 -8 30 -14 l75 -5 -77 -2 c-43 -1 -78 -6 -78 -12 0 -5 33 -11 73
-13 l72 -3 -79 -2 c-94 -2 -92 -15 2 -23 l67 -6 -78 -1 c-92 -2 -97 -20 -6
-21 34 0 64 -2 67 -5 3 -4 -31 -6 -76 -6 l-81 0 9 28 c4 15 34 108 65 207 32
99 62 195 68 213 6 17 13 32 16 32 3 0 16 -18 29 -40z m2945 -25 l38 -7 -33
-24 c-18 -14 -40 -34 -48 -44 -15 -20 -17 -19 -54 31 -28 38 -36 57 -32 75 l7
25 42 -25 c23 -13 59 -28 80 -31z m-1414 13 c-2 -2 -26 -23 -51 -47 -43 -40
-48 -43 -54 -25 -4 10 -16 31 -26 47 l-19 27 77 0 c43 0 75 -1 73 -2z m521
-13 c109 -16 176 -38 276 -88 73 -37 168 -115 206 -171 l22 -31 -26 23 c-22
20 -26 21 -32 7 -3 -9 -2 -14 3 -11 11 7 43 -28 34 -37 -8 -9 -54 33 -48 43 3
4 -8 16 -23 26 -24 15 -25 15 -13 1 13 -16 8 -22 -13 -18 -5 1 -4 -5 3 -13 7
-9 17 -14 21 -11 4 3 13 -2 20 -10 7 -8 9 -15 5 -15 -4 0 -1 -8 6 -17 8 -10
-4 -3 -26 15 -22 18 -41 28 -43 23 -2 -6 -33 10 -69 35 -132 88 -284 129 -451
122 -110 -5 -174 -27 -230 -81 -48 -46 -62 -78 -62 -142 0 -67 23 -117 77
-166 37 -33 49 -69 27 -76 -12 -4 -116 42 -109 48 2 3 -5 6 -16 6 -20 2 -20 1
2 -18 24 -21 19 -25 -12 -8 -17 8 -24 7 -35 -8 -10 -12 -9 -6 3 20 11 25 22
36 31 32 12 -5 13 -3 2 10 -12 15 -14 15 -24 -2 -5 -10 -16 -24 -24 -32 -12
-12 -15 -12 -23 0 -5 8 -9 20 -9 27 0 6 -5 12 -11 12 -6 0 -8 7 -5 16 3 8 2
13 -3 9 -18 -11 -33 67 -29 144 11 185 142 308 363 340 90 13 131 12 235 -4z
m-799 -32 c37 -22 53 -63 46 -116 -15 -109 -164 -121 -207 -18 -40 98 68 189
161 134z m1935 -107 c31 -31 34 -39 34 -93 l0 -59 -92 1 c-71 0 -96 3 -105 15
-7 8 -13 11 -13 6 0 -21 -30 19 -30 41 0 65 60 123 127 123 38 0 50 -5 79 -34z
m-2975 -37 c11 -5 17 -15 13 -21 -4 -5 -2 -13 3 -17 6 -3 -10 -21 -35 -40 -34
-26 -44 -30 -38 -15 4 10 12 38 19 62 13 47 11 46 38 31z m3222 -79 c23 -26
27 -39 27 -90 0 -33 -4 -60 -9 -60 -5 0 -35 15 -66 32 -45 27 -55 37 -51 53 3
11 6 41 6 67 l0 47 33 -10 c17 -5 44 -22 60 -39z m-1505 6 c31 -28 48 -62 55
-111 4 -22 4 -34 1 -27 -5 10 -9 9 -20 -5 -13 -17 -13 -17 -14 2 0 16 -2 17
-9 6 -7 -11 -12 -10 -22 8 -18 27 -25 27 -33 -2 -6 -25 -43 -47 -77 -47 -34 0
-69 44 -69 88 0 97 118 153 188 88z m242 -101 l0 -70 -24 50 c-12 28 -35 64
-49 81 -15 18 -27 34 -27 37 0 3 22 -2 50 -11 l50 -17 0 -70z m310 91 c0 -2
-7 -7 -16 -10 -8 -3 -12 -2 -9 4 6 10 25 14 25 6z m-1905 -15 c15 -2 10 -7
-20 -22 -22 -11 -33 -18 -25 -16 59 15 62 15 28 -1 -47 -23 -62 -37 -25 -23
52 20 42 11 -29 -27 -218 -116 -356 -294 -414 -532 -49 -202 -105 -325 -200
-443 -83 -104 -219 -197 -323 -222 -24 -6 -26 -5 -20 11 6 16 5 17 -9 4 -9 -8
-14 -18 -11 -22 2 -5 -1 -8 -6 -8 -6 0 -11 5 -11 11 0 5 -5 7 -11 3 -8 -4 -9
1 -4 17 7 23 7 23 -8 4 -9 -11 -18 -17 -21 -14 -6 5 27 117 35 122 2 1 25 10
52 19 69 25 147 80 216 153 83 89 139 208 197 415 69 249 131 363 252 463 111
93 215 124 357 108z m470 -60 c-3 -5 9 -11 27 -13 l33 -4 -35 -11 -35 -11 50
-2 50 -2 -55 -10 c-72 -13 -85 -27 -19 -20 69 6 58 -13 -13 -22 -67 -9 -209
-56 -290 -97 -81 -40 -196 -128 -243 -184 -20 -25 -43 -45 -52 -45 -11 0 -13
3 -5 13 13 15 -33 20 -63 5 -15 -7 -13 -4 5 11 l25 21 -28 -10 c-43 -15 -46
-11 -7 10 42 23 33 26 -15 6 -46 -20 -45 -12 3 14 20 12 30 19 22 17 -55 -16
-61 -15 -25 4 34 17 36 19 11 14 -26 -5 -28 -4 -17 9 7 9 18 13 24 9 6 -4 7
-1 3 6 -26 42 222 203 394 256 109 33 268 56 255 36z m1486 -8 c13 -16 12 -17
-3 -4 -10 7 -18 15 -18 17 0 8 8 3 21 -13z m-130 -80 c83 -78 121 -143 144
-247 6 -27 1 -24 -65 37 -39 37 -95 84 -125 103 l-55 37 0 74 c0 70 1 73 20
63 10 -6 47 -36 81 -67z m469 -4 c-25 -4 -67 -7 -95 -7 l-50 1 45 7 c25 4 68
7 95 7 l50 0 -45 -8z m-2911 -15 c2 -2 -33 -4 -78 -4 -55 0 -80 3 -76 11 6 9
143 4 154 -7z m2951 -4 c0 -6 -25 -9 -57 -9 -56 2 -56 2 -18 9 61 11 75 11 75
0z m386 -17 c32 -21 44 -34 44 -52 0 -35 -45 -96 -99 -134 -59 -43 -87 -54
-147 -61 -44 -5 -45 -5 -16 4 39 13 43 24 5 16 -28 -5 -28 -5 2 9 l30 14 -35
2 -35 1 30 8 30 8 -35 2 -35 2 40 13 40 13 -45 2 -45 2 45 11 45 11 -50 7
c-27 3 -43 7 -34 7 34 4 136 63 174 102 21 22 41 40 43 40 3 0 24 -12 48 -27z
m-523 10 c-7 -2 -19 -2 -25 0 -7 3 -2 5 12 5 14 0 19 -2 13 -5z m-2898 -24
c-44 -4 -82 -6 -84 -4 -13 14 19 19 86 16 l78 -5 -80 -7z m2898 4 c-7 -2 -19
-2 -25 0 -7 3 -2 5 12 5 14 0 19 -2 13 -5z m107 -3 l-45 -7 45 -3 c42 -2 43
-3 15 -10 -50 -13 -62 -11 -68 10 -5 18 -1 20 46 18 l52 -1 -45 -7z m-107 -17
c-7 -2 -19 -2 -25 0 -7 3 -2 5 12 5 14 0 19 -2 13 -5z m-2834 -7 c-11 -9 -159
-15 -159 -6 0 6 35 10 82 10 45 0 79 -2 77 -4z m2939 -23 c-26 -2 -71 -2 -100
0 -29 2 -8 3 47 3 55 0 79 -1 53 -3z m-2978 -9 c-60 -8 -130 -8 -130 -1 0 4
35 6 78 6 42 -1 66 -3 52 -5z m1440 0 c20 -4 35 -15 40 -29 5 -13 14 -25 20
-27 6 -2 14 -22 17 -46 l6 -42 -42 0 c-32 0 -41 4 -42 18 -1 16 -2 16 -6 -1
-3 -13 -14 -17 -49 -15 -40 1 -44 4 -45 27 -1 25 -2 25 -9 -4 l-8 -30 -2 35
-3 35 -4 -32 c-4 -35 -22 -46 -24 -15 -1 16 -2 16 -6 -1 -7 -25 -37 -17 -44
13 l-7 25 -1 -27 c-1 -39 -21 -35 -22 5 l-2 32 -7 -35 c-7 -31 -7 -32 -9 -7
-1 34 -21 36 -21 2 0 -25 -29 -37 -31 -12 0 10 -2 10 -6 0 -2 -7 -11 -13 -19
-13 -11 0 -14 15 -14 64 l0 64 48 10 c54 11 244 15 292 6z m1567 -12 c6 -4
-31 -7 -82 -7 -52 -1 -91 3 -89 7 6 10 155 10 171 0z m-2998 -16 c-7 -7 -139
-10 -146 -3 -3 4 29 7 72 7 43 0 76 -2 74 -4z m1078 -88 c-2 -18 -4 -4 -4 32
0 36 2 50 4 33 2 -18 2 -48 0 -65z m-30 0 c-2 -18 -4 -6 -4 27 0 33 2 48 4 33
2 -15 2 -42 0 -60z m643 54 c3 -3 -5 -1 -17 2 -15 5 -23 3 -23 -5 0 -7 -2 -10
-5 -7 -3 3 -3 13 1 22 6 16 10 15 44 -12z m1309 24 c-9 -8 -179 -13 -179 -5 0
5 41 9 92 9 50 0 89 -2 87 -4z m-1969 -50 c0 -25 -4 -48 -10 -51 -6 -4 -10 13
-10 44 0 28 5 51 10 51 6 0 10 -20 10 -44z m1416 -44 c134 -99 253 -241 328
-390 l27 -54 -23 7 c-68 20 -210 100 -268 151 -36 32 -87 75 -115 97 -27 22
-41 37 -30 33 25 -9 13 3 -40 38 -22 14 -33 26 -25 26 8 1 -1 9 -20 20 -45 25
-34 25 20 1 24 -11 36 -21 28 -23 -9 -2 9 -18 44 -40 32 -21 58 -34 58 -30 0
4 -20 19 -43 34 -39 25 -59 58 -35 58 5 0 6 5 3 10 -3 6 -11 10 -16 10 -6 0
-7 -5 -3 -12 5 -7 2 -9 -7 -6 -8 3 -31 11 -51 19 -21 7 -38 16 -38 19 0 3 12
13 28 23 27 19 14 19 -33 2 -12 -5 0 13 29 43 58 60 52 61 182 -36z m-2513 71
c-18 -2 -48 -2 -65 0 -18 2 -4 4 32 4 36 0 50 -2 33 -4z m1064 -60 c-2 -16 -4
-5 -4 22 0 28 2 40 4 28 2 -13 2 -35 0 -50z m-17 35 c0 -18 -2 -20 -9 -8 -6 8
-7 18 -5 22 9 14 14 9 14 -14z m2015 17 c-23 -8 -175 -11 -175 -3 0 4 42 8 93
7 50 0 88 -2 82 -4z m-3072 -22 c-18 -2 -48 -2 -65 0 -18 2 -4 4 32 4 36 0 50
-2 33 -4z m1004 -40 c-3 -10 -5 -2 -5 17 0 19 2 27 5 18 2 -10 2 -26 0 -35z
m2068 32 c-25 -8 -184 -12 -179 -4 3 5 47 9 97 8 51 0 88 -2 82 -4z m-2088
-37 c-3 -7 -5 -2 -5 12 0 14 2 19 5 13 2 -7 2 -19 0 -25z m-948 18 c-9 -8
-138 -13 -133 -5 3 5 35 9 71 9 37 0 64 -2 62 -4z m3677 -30 c38 -7 42 -10 48
-44 18 -108 -2 -250 -48 -340 -104 -206 -373 -339 -609 -302 -91 14 -97 21
-16 16 49 -3 55 -2 24 4 l-40 7 45 3 45 2 -59 9 c-32 5 -61 11 -63 13 -3 2 19
9 49 14 39 7 45 10 23 12 -16 1 -48 7 -70 14 -39 12 -38 12 60 18 174 11 327
75 419 178 81 90 130 255 107 361 -15 69 -15 71 17 55 15 -7 46 -17 68 -20z
m-647 20 c-10 -9 -179 -14 -179 -6 0 6 40 10 92 10 50 0 89 -2 87 -4z m946 -6
c-3 -5 -18 -9 -33 -9 l-27 1 30 8 c17 4 31 8 33 9 2 0 0 -3 -3 -9z m-3996 -14
c-11 -9 -119 -15 -119 -6 0 6 27 10 62 10 34 0 59 -2 57 -4z m3020 -10 c-10
-8 -159 -14 -159 -5 0 5 37 9 82 9 45 0 79 -2 77 -4z m964 -3 c-13 -2 -33 -2
-45 0 -13 2 -3 4 22 4 25 0 35 -2 23 -4z m-3984 -17 c-11 -9 -129 -15 -129 -6
0 6 30 10 67 10 36 0 64 -2 62 -4z m4006 -6 c4 -6 -9 -10 -32 -9 -38 1 -38 1
-8 9 17 4 31 8 32 9 1 0 5 -3 8 -9z m-1045 -10 c-83 -12 -128 -12 -110 0 8 5
49 9 90 8 l75 -1 -55 -7z m-3010 -21 c-63 -11 -90 -11 -90 1 0 6 28 9 68 9 66
-1 66 -2 22 -10z m640 7 c0 -2 -7 -7 -16 -10 -8 -3 -12 -2 -9 4 6 10 25 14 25
6z m3398 -3 c-15 -2 -42 -2 -60 0 -18 2 -6 4 27 4 33 0 48 -2 33 -4z m-998 -9
c-39 -10 -160 -20 -160 -13 0 12 30 17 105 17 39 0 63 -2 55 -4z m508 -42 c2
-23 2 -42 0 -42 -18 1 -89 28 -89 34 0 11 64 56 76 52 6 -1 11 -21 13 -44z
m-3553 18 c-45 -12 -97 -12 -90 0 3 6 32 9 63 9 47 -1 52 -3 27 -9z m4065 2
c0 -4 -21 -6 -47 -4 -83 5 -90 9 -20 11 37 0 67 -2 67 -7z m-1055 -12 c-84
-16 -150 -21 -140 -11 12 12 53 18 125 18 53 1 54 1 15 -7z m983 -7 c-10 -2
-28 -2 -40 0 -13 2 -5 4 17 4 22 1 32 -1 23 -4z m-3998 -13 c-14 -4 -43 -8
-65 -8 -34 0 -36 1 -15 8 14 4 43 8 65 8 34 0 36 -1 15 -8z m4075 0 c4 -6 -19
-9 -62 -8 -64 1 -66 1 -23 8 69 11 78 11 85 0z m-1066 -14 c-10 -8 -129 -13
-129 -5 0 5 30 9 67 9 36 0 64 -2 62 -4z m-3029 -16 c-14 -4 -41 -8 -60 -8
l-35 0 30 8 c17 4 44 8 60 8 29 0 29 0 5 -8z m4095 0 c4 -6 -20 -9 -67 -8 -67
1 -69 2 -28 8 70 11 88 11 95 0z m-1066 -14 c-7 -8 -98 -10 -105 -3 -4 4 19 7
51 7 32 0 56 -2 54 -4z m-3044 -17 c-22 -4 -51 -8 -65 -8 -23 0 -23 1 -5 9 11
5 40 8 65 8 l45 0 -40 -9z m4115 1 c0 -6 -30 -10 -71 -10 -44 0 -68 4 -64 10
3 6 35 10 71 10 36 0 64 -4 64 -10z m-1107 -17 c-7 -2 -21 -2 -30 0 -10 3 -4
5 12 5 17 0 24 -2 18 -5z m-3018 -13 c-16 -4 -43 -8 -60 -8 -25 -1 -27 1 -10
8 11 5 38 8 60 8 38 0 39 -1 10 -8z m4124 -6 c2 -2 -29 -3 -70 -3 -52 1 -65 3
-44 8 28 7 105 3 114 -5z m-3609 -19 c-27 -29 -17 -34 14 -7 21 17 21 17 3 -4
-9 -11 -14 -24 -10 -29 5 -4 2 -5 -5 -1 -7 4 -12 4 -11 -1 1 -4 0 -10 -1 -13
-1 -3 -3 -13 -5 -22 -3 -15 0 -16 17 -7 13 7 17 14 10 18 -7 4 -3 12 11 20 20
13 21 13 8 -2 -7 -10 -10 -17 -5 -17 4 0 -3 -11 -16 -25 -26 -27 -35 -55 -18
-55 6 0 4 -7 -3 -17 -12 -14 -10 -14 14 2 19 12 24 20 16 25 -8 6 -4 12 12 21
22 11 23 11 10 -4 -7 -10 -10 -17 -6 -17 4 0 1 -8 -6 -17 -12 -15 -12 -16 3
-11 11 5 15 2 13 -10 -2 -9 -4 -18 -5 -19 -2 -2 -3 -9 -4 -15 0 -7 -6 -13 -13
-13 -15 0 -26 -12 -29 -31 -2 -12 1 -13 12 -3 7 6 11 15 8 20 -3 5 2 6 10 3 9
-3 13 -11 9 -18 -4 -6 -9 -20 -10 -31 -5 -31 -68 -171 -105 -232 -43 -73 -185
-223 -264 -279 -143 -102 -370 -186 -491 -182 l-48 1 49 6 c31 4 51 12 54 21
5 13 3 13 -11 2 -9 -8 -22 -12 -29 -9 -8 3 -6 6 5 6 10 1 22 13 27 27 15 39
11 53 -5 17 -9 -21 -20 -31 -33 -30 -16 1 -18 6 -12 27 16 51 22 58 58 64 48
8 214 83 277 126 224 151 336 300 426 569 25 74 49 125 66 143 15 15 29 28 32
28 2 0 -6 -11 -19 -25z m-525 -5 c-16 -4 -43 -8 -60 -9 -23 0 -26 2 -15 9 8 5
35 9 60 9 41 -1 42 -2 15 -9z m3519 -14 l40 -12 -31 -32 c-31 -33 -41 -31 -56
11 -4 9 -13 17 -22 17 -8 0 -15 5 -15 11 0 5 5 7 10 4 6 -3 10 -4 10 0 0 3
-10 10 -22 15 -18 8 -16 9 12 4 19 -4 53 -12 74 -18z m613 7 c-7 -7 -139 -4
-146 3 -2 2 31 4 74 4 43 0 75 -3 72 -7z m-4142 -23 c-45 -11 -87 -11 -80 0 3
6 30 9 58 9 45 -1 48 -2 22 -9z m3322 -95 c23 -21 40 -41 38 -45 -13 -21 -224
-44 -241 -27 -3 3 19 41 48 84 l53 80 30 -27 c17 -15 49 -44 72 -65z m813 84
c0 -7 -22 -8 -67 -4 -91 10 -92 15 -5 15 45 0 72 -4 72 -11z m-4155 -19 c-16
-4 -41 -8 -55 -8 -23 -1 -23 0 -5 8 11 5 36 8 55 8 l35 0 -30 -8z m4155 -10
c0 -6 -30 -10 -70 -10 -40 0 -70 4 -70 10 0 6 30 10 70 10 40 0 70 -4 70 -10z
m-3570 -25 c-13 -14 -28 -25 -34 -25 -6 1 3 12 19 25 39 32 45 32 15 0z m-605
5 c-16 -4 -39 -8 -50 -9 -16 -1 -17 1 -5 9 8 5 31 9 50 9 l35 -1 -30 -8z
m4175 -10 c0 -6 -32 -10 -76 -10 -47 0 -73 4 -69 10 3 6 37 10 76 10 39 0 69
-4 69 -10z m-4180 -20 c-14 -4 -36 -8 -50 -8 -23 -1 -23 0 -5 8 11 5 34 8 50
8 29 0 29 0 5 -8z m4170 -10 c0 -6 -30 -10 -71 -10 -44 0 -68 4 -64 10 3 6 35
10 71 10 36 0 64 -4 64 -10z m-4200 -26 c-54 -17 -50 -16 -50 -5 0 10 29 18
70 19 16 0 9 -4 -20 -14z m4195 -4 c4 -6 -22 -9 -72 -8 -73 1 -75 2 -28 8 78
11 93 11 100 0z m-4185 -19 c-26 -14 -70 -22 -70 -12 0 5 15 12 33 14 17 2 37
4 42 5 6 1 3 -2 -5 -7z m4178 -18 c-3 -15 -15 -18 -73 -19 l-70 -1 55 7 55 7
-55 3 c-48 2 -51 3 -25 10 17 4 49 8 73 9 36 1 43 -2 40 -16z m-4188 -20 c-57
-18 -70 -21 -70 -13 0 5 8 11 18 13 23 6 71 7 52 0z m4158 -20 c-21 -2 -57 -2
-80 0 -24 2 -7 4 37 4 44 0 63 -2 43 -4z m-4178 -7 c0 -2 -13 -9 -30 -15 -16
-5 -30 -6 -30 -1 0 7 10 11 53 19 4 0 7 -1 7 -3z m4195 -16 c-3 -5 -36 -9 -73
-9 -56 1 -61 3 -32 9 54 11 112 11 105 0z m-4235 -24 c0 -2 -7 -6 -15 -10 -8
-3 -15 -1 -15 4 0 6 7 10 15 10 8 0 15 -2 15 -4z m4205 -6 c-16 -4 -50 -8 -75
-8 -40 0 -42 1 -15 8 17 4 50 8 75 8 40 0 42 -1 15 -8z m13 -25 c-3 -3 -36 -8
-74 -10 -81 -6 -74 2 11 13 59 8 74 7 63 -3z m-4238 -19 c0 -2 -7 -7 -16 -10
-8 -3 -12 -2 -9 4 6 10 25 14 25 6z m4235 -5 c-12 -12 -145 -30 -145 -21 0 4
30 11 68 17 37 5 71 11 77 11 6 1 6 -1 0 -7z m-908 -27 c-3 -3 -12 -4 -19 -1
-8 3 -5 6 6 6 11 1 17 -2 13 -5z m898 -3 c-12 -11 -145 -30 -145 -21 0 4 30
11 68 17 37 5 71 11 77 11 6 1 6 -1 0 -7z m-289 -43 c-11 -15 -16 -18 -16 -7
0 16 21 42 28 34 2 -2 -3 -14 -12 -27z m263 1 c-9 -18 -17 -20 -47 -15 -21 3
-48 6 -62 7 -19 1 49 18 113 28 4 0 3 -9 -4 -20z m-876 4 c-7 -2 -19 -2 -25 0
-7 3 -2 5 12 5 14 0 19 -2 13 -5z m584 -35 c-3 -8 -6 -5 -6 6 -1 11 2 17 5 13
3 -3 4 -12 1 -19z m211 5 c-10 -2 -28 -2 -40 0 -13 2 -5 4 17 4 22 1 32 -1 23
-4z m52 -12 c-39 -12 -124 -22 -116 -14 7 7 82 20 121 21 15 0 14 -2 -5 -7z
m-10 -30 c-35 -11 -136 -24 -129 -16 8 8 87 23 124 23 29 0 29 0 5 -7z m-1070
-19 c0 -10 7 -27 15 -39 10 -14 13 -33 10 -50 -4 -22 -1 -20 14 12 24 49 26
42 6 -15 -8 -23 -15 -50 -14 -59 0 -9 11 13 24 49 30 82 32 70 4 -21 -12 -39
-19 -72 -17 -75 3 -2 13 21 23 51 18 60 31 72 15 14 -16 -55 -10 -79 6 -25 9
26 18 46 21 43 3 -3 0 -20 -6 -38 -6 -18 -11 -39 -10 -48 0 -9 7 2 15 23 19
53 21 53 22 4 1 -54 -23 -141 -43 -158 -8 -7 -15 -8 -15 -3 0 5 -7 18 -15 29
-11 14 -14 15 -9 3 3 -10 1 -20 -5 -24 -7 -4 -8 1 -4 12 6 16 5 16 -10 4 -9
-7 -17 -10 -17 -6 0 4 -7 2 -15 -5 -8 -7 -15 -9 -15 -5 0 4 -6 2 -13 -4 -10
-8 -14 -7 -14 4 0 7 5 13 10 12 5 -1 12 4 15 12 2 8 0 11 -5 8 -6 -4 -4 16 3
44 14 54 21 240 10 258 -4 6 -2 11 3 11 6 0 11 -8 11 -18z m1075 -1 c-11 -11
-145 -34 -152 -27 -3 3 12 8 33 11 32 5 104 19 124 24 2 1 0 -3 -5 -8z m-1036
-46 c0 -5 -6 -1 -14 9 -8 11 -15 24 -15 30 0 5 7 1 15 -10 8 -10 14 -23 14
-29z m1026 16 c-11 -11 -145 -34 -152 -27 -3 3 5 7 18 10 50 9 124 23 134 25
6 0 6 -2 0 -8z m-22 -32 c-10 -10 -134 -32 -141 -24 -3 2 6 6 19 9 13 2 47 9
74 14 28 5 52 10 55 11 2 0 -1 -4 -7 -10z m-774 -99 c1 -28 4 -32 12 -20 8 11
9 8 5 -15 l-6 -30 15 25 c17 29 19 23 5 -17 -9 -26 -9 -27 5 -9 8 11 15 15 15
9 0 -6 -9 -22 -20 -36 -22 -28 -26 -42 -8 -31 8 5 9 2 4 -11 -7 -18 -6 -18 14
0 24 22 26 14 4 -23 -15 -26 -15 -26 10 3 26 30 35 52 16 40 -5 -3 -10 -1 -10
6 0 8 -4 8 -15 -1 -23 -19 -18 4 5 25 20 18 21 18 14 0 -5 -13 -4 -16 4 -11 7
4 12 2 12 -4 0 -6 5 -8 11 -4 6 3 4 -8 -5 -24 -22 -42 -20 -52 5 -22 20 24 19
23 -1 -16 -12 -23 -40 -61 -61 -85 l-40 -44 41 55 c22 30 40 59 40 65 0 11 -5
5 -44 -48 -16 -22 -46 -46 -74 -58 -26 -11 -55 -25 -65 -30 -13 -7 -7 11 22
63 48 88 71 169 72 258 0 68 17 60 18 -10z m746 61 c-24 -10 -137 -20 -129
-12 5 5 87 17 129 19 l20 1 -20 -8z m-15 -30 c-18 -10 -148 -25 -139 -17 5 6
100 22 139 24 13 1 13 0 0 -7z m-72 -38 c-10 -2 -26 -2 -35 0 -10 3 -2 5 17 5
19 0 27 -2 18 -5z m-3398 -47 c0 -2 -8 -10 -17 -17 -16 -13 -17 -12 -4 4 13
16 21 21 21 13z m6 -25 c-19 -20 -24 -30 -14 -33 9 -3 6 -8 -9 -16 -17 -10
-21 -9 -19 3 2 14 55 75 65 75 2 0 -8 -13 -23 -29z m24 -6 c-24 -25 -16 -35
10 -12 8 6 -1 -5 -20 -27 -36 -40 -90 -69 -150 -81 -50 -10 -27 9 37 29 53 17
109 54 98 64 -5 5 34 52 43 52 3 0 -5 -11 -18 -25z m-85 -56 c-8 -12 -56 -32
-62 -25 -5 4 45 33 60 35 5 1 5 -4 2 -10z m72 -42 c-58 -99 -139 -150 -217
-137 -43 7 -44 8 -10 9 19 2 44 6 55 11 14 6 2 8 -35 5 l-55 -5 50 17 50 17
-45 7 -45 6 45 2 c25 2 56 7 70 12 17 5 8 6 -29 3 -38 -5 -52 -3 -47 5 4 6 19
11 34 11 46 0 98 19 149 53 26 19 50 32 52 31 2 -2 -8 -23 -22 -47z m-802 -56
c-22 -44 -26 -38 -7 10 9 23 18 37 20 31 2 -6 -4 -24 -13 -41z"/>
<path d="M6148 7303 c6 -2 18 -2 25 0 6 3 1 5 -13 5 -14 0 -19 -2 -12 -5z"/>
<path d="M4548 7423 c7 -3 16 -2 19 1 4 3 -2 6 -13 5 -11 0 -14 -3 -6 -6z"/>
<path d="M4258 6433 c6 -2 18 -2 25 0 6 3 1 5 -13 5 -14 0 -19 -2 -12 -5z"/>
<path d="M4253 6413 c9 -2 23 -2 30 0 6 3 -1 5 -18 5 -16 0 -22 -2 -12 -5z"/>
<path d="M5909 6963 c-13 -16 -12 -17 4 -4 9 7 17 15 17 17 0 8 -8 3 -21 -13z"/>
<path d="M5927 6953 c-4 -3 -7 -11 -7 -17 0 -6 5 -5 12 2 6 6 9 14 7 17 -3 3
-9 2 -12 -2z"/>
<path d="M6183 6658 c-4 -7 -8 -16 -9 -20 -1 -5 -2 -9 -4 -10 -6 -8 -7 -38 -2
-39 4 0 15 -2 24 -4 10 -2 20 1 24 6 3 5 10 6 16 3 6 -4 6 0 -1 13 -6 11 -7
24 -3 28 4 5 1 4 -7 0 -11 -6 -13 -4 -8 8 4 12 2 14 -10 10 -11 -4 -14 -2 -9
5 4 7 5 12 2 12 -3 0 -8 -6 -13 -12z m29 -60 c-11 -11 -12 -9 -7 7 6 19 6 19
-8 2 -12 -15 -15 -15 -20 -3 -4 9 -2 18 4 21 5 4 6 12 3 18 -4 7 4 2 17 -10
19 -18 21 -25 11 -35z"/>
<path d="M6669 6923 c-13 -16 -12 -17 4 -4 9 7 17 15 17 17 0 8 -8 3 -21 -13z"/>
<path d="M6685 6910 c-10 -11 -13 -20 -7 -20 6 0 16 9 22 20 6 11 9 20 7 20
-2 0 -12 -9 -22 -20z"/>
<path d="M4746 6262 c-3 -5 8 -6 25 -4 16 2 29 6 29 8 0 8 -49 4 -54 -4z"/>
<path d="M4373 6033 c15 -2 37 -2 50 0 12 2 0 4 -28 4 -27 0 -38 -2 -22 -4z"/>
<path d="M4458 6023 c6 -2 18 -2 25 0 6 3 1 5 -13 5 -14 0 -19 -2 -12 -5z"/>
<path d="M5629 5519 l-24 -20 28 17 c15 9 27 18 27 20 0 8 -8 4 -31 -17z"/>
<path d="M5697 5374 c-11 -14 -17 -28 -14 -30 3 -3 15 9 27 25 12 17 18 31 13
31 -4 0 -16 -12 -26 -26z"/>
<path d="M5716 5351 c-10 -11 -16 -25 -14 -31 2 -6 11 3 21 20 21 34 18 39 -7
11z"/>
<path d="M5781 5239 c-7 -12 -10 -23 -8 -26 3 -3 11 5 17 17 15 28 8 35 -9 9z"/>
<path d="M5801 5214 c-17 -38 -6 -42 14 -5 8 17 12 31 7 31 -5 0 -14 -12 -21
-26z"/>
<path d="M5821 5194 c-17 -38 -6 -42 14 -5 8 17 12 31 7 31 -5 0 -14 -12 -21
-26z"/>
<path d="M5842 5176 c-14 -32 -15 -39 -3 -32 5 4 11 1 13 -5 2 -6 9 1 16 16 7
14 8 24 3 21 -5 -4 -11 1 -13 11 -2 13 -6 10 -16 -11z"/>
<path d="M5896 5115 c-9 -26 -7 -32 5 -12 6 10 9 21 6 23 -2 3 -7 -2 -11 -11z"/>
<path d="M6711 5188 c0 -9 -4 -25 -7 -35 -5 -17 -5 -17 6 0 6 10 9 25 7 35 -4
15 -5 15 -6 0z"/>
<path d="M6733 5175 c-3 -9 -3 -18 -1 -21 3 -3 8 4 11 16 6 23 -1 27 -10 5z"/>
<path d="M6771 5154 c0 -11 3 -14 6 -6 3 7 2 16 -1 19 -3 4 -6 -2 -5 -13z"/>
<path d="M6795 5149 c-4 -6 -5 -12 -2 -15 2 -3 7 2 10 11 7 17 1 20 -8 4z"/>
<path d="M6812 5125 c-17 -37 -14 -45 4 -12 9 16 14 31 11 33 -2 2 -9 -7 -15
-21z"/>
<path d="M6835 5119 c-4 -6 -5 -12 -2 -15 2 -3 7 2 10 11 7 17 1 20 -8 4z"/>
<path d="M6846 5085 c-9 -26 -7 -32 5 -12 6 10 9 21 6 23 -2 3 -7 -2 -11 -11z"/>
<path d="M6867 5078 c-9 -31 -2 -33 11 -3 6 14 8 25 3 25 -5 0 -11 -10 -14
-22z"/>
<path d="M7097 4823 c3 -7 6 -13 8 -13 2 0 5 6 8 13 3 8 -1 14 -8 14 -7 0 -11
-6 -8 -14z"/>
<path d="M7130 4816 c-9 -11 -9 -19 0 -33 11 -17 11 -17 6 1 -4 10 -1 25 5 32
6 8 9 14 6 14 -2 0 -10 -7 -17 -14z"/>
<path d="M7159 4773 c-13 -16 -12 -17 4 -4 16 13 21 21 13 21 -2 0 -10 -8 -17
-17z"/>
<path d="M7194 4714 c-10 -8 -13 -12 -5 -8 7 3 17 1 21 -6 5 -9 9 -9 14 -1 4
6 2 11 -4 11 -6 0 -8 5 -5 10 9 14 2 12 -21 -6z"/>
<path d="M7225 4680 c-3 -5 0 -21 8 -36 12 -22 15 -24 20 -10 5 11 3 15 -5 10
-8 -5 -9 -2 -5 10 5 11 3 15 -5 10 -8 -5 -9 -2 -5 9 7 18 2 23 -8 7z"/>
<path d="M7221 4620 c14 -31 19 -36 19 -24 0 6 -7 19 -16 30 -14 18 -14 18 -3
-6z"/>
<path d="M7250 4580 c-9 -6 -10 -10 -3 -10 6 0 15 5 18 10 8 12 4 12 -15 0z"/>
<path d="M7280 4541 c0 -7 -4 -10 -9 -6 -5 3 -12 1 -16 -4 -3 -6 4 -8 16 -6
15 3 19 0 15 -11 -4 -10 -2 -13 6 -8 7 5 9 2 6 -8 -4 -8 0 -15 7 -15 11 0 11
6 -2 31 -19 38 -23 43 -23 27z"/>
<path d="M7280 4348 c0 -4 4 -8 9 -8 6 0 12 4 15 8 3 5 -1 9 -9 9 -8 0 -15 -4
-15 -9z"/>
<path d="M3818 5103 c7 -3 16 -2 19 1 4 3 -2 6 -13 5 -11 0 -14 -3 -6 -6z"/>
<path d="M3765 4890 c-3 -5 3 -10 14 -10 12 0 21 5 21 10 0 6 -6 10 -14 10 -8
0 -18 -4 -21 -10z"/>
<path d="M3783 4863 c9 -2 23 -2 30 0 6 3 -1 5 -18 5 -16 0 -22 -2 -12 -5z"/>
<path d="M3838 4793 c7 -3 16 -2 19 1 4 3 -2 6 -13 5 -11 0 -14 -3 -6 -6z"/>
<path d="M4822 4865 c0 -16 2 -22 5 -12 2 9 2 23 0 30 -3 6 -5 -1 -5 -18z"/>
<path d="M4852 4865 c0 -16 2 -22 5 -12 2 9 2 23 0 30 -3 6 -5 -1 -5 -18z"/>
<path d="M6330 4540 c-8 -5 -10 -10 -5 -10 6 0 17 5 25 10 8 5 11 10 5 10 -5
0 -17 -5 -25 -10z"/>
<path d="M6364 4494 c-18 -14 -18 -15 4 -4 12 6 22 13 22 15 0 8 -5 6 -26 -11z"/>
<path d="M6380 4475 c-14 -8 -20 -14 -14 -15 5 0 19 7 30 15 24 18 16 19 -16
0z"/>
<path d="M6400 4460 c-9 -6 -10 -10 -3 -10 6 0 15 5 18 10 8 12 4 12 -15 0z"/>
<path d="M6400 4440 c-21 -7 -21 -8 -5 -9 11 0 27 4 35 9 18 11 5 11 -30 0z"/>
<path d="M6490 4360 l-25 -8 28 -1 c15 -1 27 4 27 9 0 6 -1 10 -2 9 -2 -1 -14
-5 -28 -9z"/>
<path d="M6077 4439 c12 -12 25 -20 28 -17 3 3 -7 13 -22 23 l-28 17 22 -23z"/>
<path d="M6190 4416 c0 -2 8 -10 18 -17 15 -13 16 -12 3 4 -13 16 -21 21 -21
13z"/>
<path d="M5215 4229 c-4 -6 -5 -12 -2 -15 2 -3 7 2 10 11 7 17 1 20 -8 4z"/>
<path d="M5205 4179 c-11 -16 -1 -19 13 -3 7 8 8 14 3 14 -5 0 -13 -5 -16 -11z"/>
<path d="M3386 3275 c-9 -26 -7 -32 5 -12 6 10 9 21 6 23 -2 3 -7 -2 -11 -11z"/>
<path d="M3346 3230 c8 -43 14 -51 14 -19 0 13 -5 31 -10 39 -7 11 -8 5 -4
-20z"/>
<path d="M3326 3220 c8 -43 14 -51 14 -19 0 13 -5 31 -10 39 -7 11 -8 5 -4
-20z"/>
<path d="M3371 3224 c0 -11 3 -14 6 -6 3 7 2 16 -1 19 -3 4 -6 -2 -5 -13z"/>
<path d="M3251 3204 c0 -11 3 -14 6 -6 3 7 2 16 -1 19 -3 4 -6 -2 -5 -13z"/>
<path d="M3291 3203 c-1 -6 -4 -20 -7 -30 -5 -17 -5 -17 6 0 6 10 9 23 6 30
-3 9 -5 9 -5 0z"/>
<path d="M3312 3190 c0 -14 2 -19 5 -12 2 6 2 18 0 25 -3 6 -5 1 -5 -13z"/>
<path d="M3256 3165 c-9 -26 -7 -32 5 -12 6 10 9 21 6 23 -2 3 -7 -2 -11 -11z"/>
<path d="M5002 4060 c0 -19 2 -27 5 -17 2 9 2 25 0 35 -3 9 -5 1 -5 -18z"/>
<path d="M4841 4054 c0 -11 3 -14 6 -6 3 7 2 16 -1 19 -3 4 -6 -2 -5 -13z"/>
<path d="M4701 4044 c0 -11 3 -14 6 -6 3 7 2 16 -1 19 -3 4 -6 -2 -5 -13z"/>
<path d="M5895 3990 c3 -5 10 -10 16 -10 5 0 9 5 9 10 0 6 -7 10 -16 10 -8 0
-12 -4 -9 -10z"/>
<path d="M5980 3868 c7 -8 122 -99 140 -111 8 -6 -7 10 -34 34 -40 36 -124 97
-106 77z"/>
<path d="M6065 3830 c3 -5 11 -10 16 -10 6 0 7 5 4 10 -3 6 -11 10 -16 10 -6
0 -7 -4 -4 -10z"/>
<path d="M6613 3383 c9 -2 25 -2 35 0 9 3 1 5 -18 5 -19 0 -27 -2 -17 -5z"/>
<path d="M3946 3595 c-12 -9 -15 -15 -7 -15 11 0 11 -3 0 -17 -13 -16 -12 -17
3 -5 9 8 23 10 30 6 7 -4 10 -4 6 1 -4 4 -3 14 4 22 9 11 7 12 -7 7 -13 -5
-16 -4 -11 4 9 15 5 15 -18 -3z"/>
<path d="M3331 2914 c0 -11 3 -14 6 -6 3 7 2 16 -1 19 -3 4 -6 -2 -5 -13z"/>
<path d="M3351 2914 c0 -11 3 -14 6 -6 3 7 2 16 -1 19 -3 4 -6 -2 -5 -13z"/>
<path d="M3371 2914 c0 -11 3 -14 6 -6 3 7 2 16 -1 19 -3 4 -6 -2 -5 -13z"/>
<path d="M3131 2884 c-6 -15 -9 -29 -7 -32 3 -2 10 8 16 23 14 36 7 43 -9 9z"/>
<path d="M3187 2893 c-2 -10 -8 -27 -13 -37 -6 -15 -4 -17 6 -11 10 6 12 4 7
-7 -4 -11 0 -15 10 -14 17 3 43 33 43 50 -1 6 -8 -2 -16 -17 -9 -16 -18 -27
-21 -24 -2 3 0 14 6 25 6 12 11 27 11 34 -1 7 -7 0 -15 -17 l-15 -30 6 33 c6
34 0 44 -9 15z"/>
<path d="M3301 2884 c0 -11 3 -14 6 -6 3 7 2 16 -1 19 -3 4 -6 -2 -5 -13z"/>
<path d="M3266 2853 c-6 -14 -5 -15 5 -6 7 7 10 15 7 18 -3 3 -9 -2 -12 -12z"/>
<path d="M7413 3353 c9 -2 23 -2 30 0 6 3 -1 5 -18 5 -16 0 -22 -2 -12 -5z"/>
<path d="M6344 3018 c-13 -36 -12 -69 1 -58 7 6 14 7 18 4 3 -3 11 4 17 16 7
13 7 20 2 16 -6 -3 -12 -3 -15 1 -2 5 -3 3 -1 -3 1 -6 -4 -11 -12 -11 -17 0
-17 3 -3 29 6 11 8 22 6 25 -3 2 -9 -6 -13 -19z"/>
<path d="M6418 2968 c2 -10 6 -18 7 -18 1 0 5 8 7 18 3 11 0 19 -7 19 -7 0
-10 -8 -7 -19z"/>
<path d="M3000 5517 c-54 -27 -60 -94 -13 -142 l26 -25 232 0 232 0 23 78 c13
42 25 83 27 90 7 18 -491 17 -527 -1z"/>
<path d="M7000 5522 c0 -5 24 -25 53 -44 28 -19 81 -59 117 -88 l65 -52 125 6
c69 3 162 6 208 6 75 0 85 2 107 25 33 32 33 84 1 122 l-24 28 -326 3 c-188 2
-326 -1 -326 -6z"/>
<path d="M3040 4900 c-107 -3 -201 -9 -208 -14 -8 -4 -20 -22 -27 -39 -16 -38
-4 -79 32 -107 24 -19 41 -20 233 -20 l208 0 26 84 c14 46 26 89 26 95 0 7
-18 10 -47 9 -27 -1 -136 -5 -243 -8z"/>
<path d="M7590 4904 c0 -1 20 -43 45 -93 l45 -91 80 0 c91 0 120 10 143 50 24
40 21 65 -10 100 l-28 30 -137 4 c-76 2 -138 2 -138 0z"/>
<path d="M2950 4207 c-66 -23 -98 -104 -66 -166 30 -58 111 -80 154 -43 17 14
79 181 70 187 -4 2 -78 23 -103 29 -11 3 -36 -1 -55 -7z"/>
<path d="M4517 3480 c-50 -13 -96 -37 -129 -68 l-27 -25 57 -61 57 -61 37 19
c49 23 101 15 139 -23 51 -51 50 -131 -1 -183 -34 -33 -91 -38 -147 -11 -41
19 -49 12 -59 -55 -8 -57 8 -86 66 -120 65 -39 162 -38 243 2 64 31 126 100
148 163 22 63 17 180 -10 241 -30 66 -113 144 -178 166 -61 21 -147 28 -196
16z"/>
<path d="M5573 3480 c-90 -19 -178 -90 -224 -180 -54 -108 -30 -256 55 -344
68 -69 117 -91 206 -90 82 0 135 20 180 68 23 25 23 29 11 74 -16 60 -23 67
-58 54 -72 -29 -129 -15 -163 40 -67 109 48 238 162 180 l35 -19 42 55 c56 71
57 76 24 100 -83 58 -181 81 -270 62z"/>
<path d="M5039 2881 c-24 -24 -29 -38 -29 -76 0 -40 5 -52 33 -80 42 -42 74
-51 120 -32 47 20 72 60 72 115 0 37 -5 48 -33 73 -27 24 -41 29 -83 29 -43 0
-55 -5 -80 -29z"/>
</g>
</svg>
