<svg xmlns="http://www.w3.org/2000/svg" version="1.1" xmlns:xlink="http://www.w3.org/1999/xlink" xmlns:svgjs="http://svgjs.dev/svgjs" width="100%" height="100%" viewBox="0 0 1000 600"><rect width="1000" height="600" x="0" y="0" fill="#a1eebd"/><g><rect width="333.3333333333333" height="333.3333333333333" rx="13.333333333333334" ry="13.333333333333334" y="161.4559246792555" fill="#243665" transform="matrix(0.8977712105036935,0,0,0.8977712105036932,0,5.420982903037924)" x="139.2337188720703"/><path d="M219.36885100820945 403.12259807308357L219.36885100820945 403.12259807308357Q213.9358932854694 403.12259807308357 213.9358932854694 397.6896403503436L213.9358932854694 397.6896403503436Q213.9358932854694 395.0990909726133 216.7783016304791 391.46512587329704L216.7783016304791 391.46512587329704Q221.16784363163327 385.4924703635299 226.99657973152657 374.48263550817586Q232.82531583141986 363.47280065282195 239.55354824302506 346.92206851732243L239.55354824302506 346.92206851732243Q255.88840126371363 307.27227109706075 255.88840126371363 283.453608762929L255.88840126371363 283.453608762929Q255.88840126371363 257.0084171985983 234.6602883073122 257.0084171985983L234.6602883073122 257.0084171985983Q220.12442791004744 257.0084171985983 210.8056461207119 268.4140304311055L210.8056461207119 268.4140304311055Q202.78213902024152 278.77622794202694 202.78213902024152 291.7289748306787L202.78213902024152 291.7289748306787Q202.78213902024152 299.5006229638697 206.66796308683703 305.83307699832164Q210.55378715343255 312.20151088524216 219.11699204093009 312.70522881980077L219.11699204093009 312.70522881980077Q221.41970259891264 312.70522881980077 221.41970259891264 314.000503508666L221.41970259891264 314.000503508666Q221.41970259891264 315.0439192302518 219.36885100820945 315.0439192302518L219.36885100820945 315.0439192302518Q208.4669557102609 315.0439192302518 202.78213902024152 307.12835168718686Q197.09732233022214 299.24876399659036 197.09732233022214 288.63470751838963L197.09732233022214 288.63470751838963Q197.09732233022214 274.0988471211249 209.51037143184672 263.23293167564486L209.51037143184672 263.23293167564486Q220.91598466435394 253.1225931320028 234.37244948756435 253.1225931320028L234.37244948756435 253.1225931320028Q262.8684926425982 253.1225931320028 262.8684926425982 289.642143387507L262.8684926425982 289.642143387507Q262.8684926425982 300.5440386854555 260.1700037074624 314.5402012956932Q257.4355349198581 328.50038405346226 251.21102044281162 348.21734320618765L251.21102044281162 348.21734320618765Q254.8449855421278 343.036244450727 258.98266857600265 334.9767574977881L258.98266857600265 334.9767574977881Q263.40819042962534 326.7013914300384 268.69722874249146 316.9868312635496Q274.02224690782606 307.27227109706075 279.99490241759327 297.1619325534187L279.99490241759327 297.1619325534187Q282.83731076260295 292.23269276523735 286.0754974847659 287.84315076408313Q289.3136842069288 283.453608762929 292.6598104864972 279.2799458765856L292.6598104864972 279.2799458765856Q299.13618393082305 271.25643877611526 306.0083357523022 266.21925943052844Q312.8804875737813 261.14610023247315 320.14841777241367 261.14610023247315L320.14841777241367 261.14610023247315Q329.2153405944698 261.14610023247315 332.4535273166328 266.4711183978078Q335.69171403879574 271.7961365631424 335.69171403879574 279.2799458765856L335.69171403879574 279.2799458765856Q335.69171403879574 283.16576994318115 335.0440766943631 287.1955134196506Q334.3964393499306 291.22525689612 333.6048825956241 295.1110809627155L333.6048825956241 295.1110809627155Q332.3096079067589 300.2921797181762 330.1148369061818 306.37277478534884Q327.9200659056047 312.45336985252146 325.0416777081265 319.72130005115383L325.0416777081265 319.72130005115383Q330.2227764635872 311.94965191796274 338.1383440066522 302.3430313088794Q346.0539115497171 292.7723905522645 354.9769149618994 284.10124610736153Q363.8999183740817 275.3941218099901 371.9594053270206 270.75272084155654L371.9594053270206 270.75272084155654Q378.68763773862577 266.6150378076817 384.12059546136584 266.6150378076817L384.12059546136584 266.6150378076817Q387.754560560682 266.6150378076817 390.093250971133 268.91774836566424Q392.39596152911554 271.25643877611526 392.39596152911554 276.4375375315759L392.39596152911554 276.4375375315759Q392.39596152911554 278.5243689747476 392.14410256183623 280.8630593851986Q391.8922435945569 283.16576994318115 391.1006868402504 285.50446035363217L391.1006868402504 285.50446035363217Q390.5969689056917 287.33943282952447 390.093250971133 289.28234486282224Q389.55355318410585 291.22525689612 389.0498352495472 293.02424951954384L389.0498352495472 293.02424951954384Q387.754560560682 299.752481931149 386.0635074946636 306.62463375262814Q384.3724544286452 313.49678557410726 382.5734618052213 320.47687695299186L382.5734618052213 320.47687695299186Q380.738489329329 327.74480715162423 379.83899301761704 335.2645963175359Q378.9394967059052 342.7484056309791 378.9394967059052 351.0597515511974L378.9394967059052 351.0597515511974Q378.9394967059052 371.5322876057608 390.848827872971 371.5322876057608L390.848827872971 371.5322876057608Q401.7507231709196 371.5322876057608 411.82508186209316 351.563469485756L411.82508186209316 351.563469485756Q412.61663861639965 350.0163358296115 413.9119133052649 350.0163358296115L413.9119133052649 350.0163358296115Q414.7034700595714 350.0163358296115 414.7034700595714 350.807892583918L414.7034700595714 350.807892583918L414.41563123982354 350.807892583918L414.41563123982354 352.1031672727832Q412.61663861639965 356.49270927393735 410.02608923866933 361.2780296522448Q407.43553986093895 366.0633500305523 403.80157476162276 369.6973151298684L403.80157476162276 369.6973151298684Q399.6638917277479 373.83499816374325 395.92198707102636 375.02233329520305Q392.14410256183623 376.1736885741943 388.51013746252005 376.1736885741943L388.51013746252005 376.1736885741943Q366.77830657155994 376.1736885741943 366.77830657155994 347.9295043864399L366.77830657155994 347.9295043864399Q366.77830657155994 343.5399623852856 368.1815208178305 334.9767574977881Q369.62071491656957 326.449532462759 372.7149822288586 313.49678557410726L372.7149822288586 313.49678557410726Q378.68763773862577 289.1384254529483 378.68763773862577 284.4610446320463L378.68763773862577 284.4610446320463Q378.68763773862577 281.870495254316 377.78814142691385 280.32336159817146Q376.85266526273347 278.77622794202694 374.0102569177238 278.77622794202694L374.0102569177238 278.77622794202694Q361.84906678337853 278.77622794202694 334.90015728448924 317.6344686079821L334.90015728448924 317.6344686079821Q322.99082611742335 334.7248985305087 314.31968167252035 349.6205574524583Q305.6125573751489 364.51621637440775 300.4314586196882 377.4689632630595L300.4314586196882 377.4689632630595Q300.1795996524089 378.7642379519247 297.5890502746785 378.1166006074921Q294.99850089694814 377.4689632630595 292.6598104864972 375.92182960691497Q290.35709992851463 374.37469595077044 290.35709992851463 373.07942126190534L290.35709992851463 373.07942126190534L290.35709992851463 372.8275622946259Q295.53819868397534 362.1775259639567 298.8843249635437 355.84507192950474Q302.2664310955806 349.51261789505287 305.10883944059026 344.4394586969975Q307.95124778559995 339.40227935141075 311.0814949503574 332.781986497211Q314.17576226264646 326.1976734954797 318.8531430835485 315.2957781975312L318.8531430835485 315.2957781975312Q321.155853641531 309.3591025402324 324.03424183900916 299.5006229638697Q326.87665018401884 289.642143387507 326.87665018401884 281.36677731975726L326.87665018401884 281.36677731975726Q326.87665018401884 275.3941218099901 324.68187918344177 271.7961365631424Q322.45112833039616 268.1621714638262 316.7663116403768 268.1621714638262L316.7663116403768 268.1621714638262Q312.37676963922263 268.1621714638262 306.6559730967348 272.55171346498037L306.6559730967348 272.55171346498037Q300.97115640671535 277.4809532531617 294.99850089694814 285.10868197647886Q289.06182523964947 292.7723905522645 283.3410286971616 302.09117234160004L283.3410286971616 302.09117234160004Q280.49862035215193 306.7685531625021 277.65621200714224 311.4099541309356Q274.81380366213256 316.0873349518377 272.22325428440223 320.47687695299186L272.22325428440223 320.47687695299186Q267.0421555289415 329.54379977504806 262.7605530851928 336.91966953108584Q258.478950641444 344.3315191395921 255.88840126371363 348.21734320618765L255.88840126371363 348.21734320618765Q250.95916147553228 355.19743458507224 246.42570006450418 364.51621637440775Q241.89223865347606 373.83499816374325 237.25083768504254 382.90192098579956Q232.5734568641405 391.96884380785576 227.39235810867982 398.44521725218164L227.39235810867982 398.44521725218164Q223.5065340420843 403.12259807308357 219.36885100820945 403.12259807308357Z " fill="#8bd8bd" transform="matrix(0.8977712105036935,0,0,0.8977712105036932,0,5.420982903037924)"/><path d="M573.936523074638 382.988561159085L573.936523074638 382.988561159085Q569.536756135748 382.988561159085 569.536756135748 378.5887942201951L569.536756135748 378.5887942201951Q569.536756135748 376.49089210363826 571.8386209580813 373.5480016345794L571.8386209580813 373.5480016345794Q575.393399544469 368.7111717547402 580.1136793067219 359.79508775937387Q584.8339590689745 350.87900376400756 590.2826770661429 337.47574024156137L590.2826770661429 337.47574024156137Q603.5111154122094 305.36618284648387 603.5111154122094 286.0771383859201L603.5111154122094 286.0771383859201Q603.5111154122094 264.6610542794029 586.3199730682023 264.6610542794029L586.3199730682023 264.6610542794029Q574.548411191967 264.6610542794029 567.0017910782419 273.8976510981321L567.0017910782419 273.8976510981321Q560.5041220227952 282.2892595643592 560.5041220227952 292.7787701471432L560.5041220227952 292.7787701471432Q560.5041220227952 299.0724764968135 563.6509751976304 304.20068167061896Q566.7978283724656 309.3580243738211 573.7325603688616 309.7659497853738L573.7325603688616 309.7659497853738Q575.5973622502454 309.7659497853738 575.5973622502454 310.8149008436522L575.5973622502454 310.8149008436522Q575.5973622502454 311.6598891961542 573.936523074638 311.6598891961542L573.936523074638 311.6598891961542Q565.1078516674615 311.6598891961542 560.5041220227952 305.2496327288974Q555.9003923781289 298.8685137910372 555.9003923781289 290.27294261903364L555.9003923781289 290.27294261903364Q555.9003923781289 278.50138074279835 565.9528400199636 269.7018468650185L565.9528400199636 269.7018468650185Q575.1894368386927 261.5142011045677 586.0868728330294 261.5142011045677L586.0868728330294 261.5142011045677Q609.163796115154 261.5142011045677 609.163796115154 291.0887934421391L609.163796115154 291.0887934421391Q609.163796115154 299.91746484931554 606.9784814104073 311.2519637846015Q604.7640291762641 322.5573251904909 599.7232365906484 338.52469129983973L599.7232365906484 338.52469129983973Q602.6661270597073 334.32888706672617 606.0169429403188 327.8020804818829L606.0169429403188 327.8020804818829Q609.6008590561033 321.1004487206598 613.8840758774068 313.23331578357187Q618.1964302281069 305.36618284648387 623.033260107946 297.1785370860331L623.033260107946 297.1785370860331Q625.3351249302792 293.1866955586959 627.9575025759752 289.631916972308Q630.5798802216711 286.0771383859201 633.289670455557 282.6971849759119L633.289670455557 282.6971849759119Q638.534425746949 276.1995159204652 644.0996938617038 272.12026180493814Q649.6649619764587 268.0118701600144 655.5507429145763 268.0118701600144L655.5507429145763 268.0118701600144Q662.893400322525 268.0118701600144 665.5157779682211 272.3242245107145Q668.138155613917 276.63657886141453 668.138155613917 282.6971849759119L668.138155613917 282.6971849759119Q668.138155613917 285.8440381507471 667.6136800847778 289.1074414431688Q667.0892045556386 292.3708447355904 666.448178908913 295.5176979104256L666.448178908913 295.5176979104256Q665.3992278506346 299.7135021435392 663.6218385574406 304.63774461156834Q661.8444492642467 309.5619870795975 659.5134469125169 315.4477680177151L659.5134469125169 315.4477680177151Q663.7092511456304 309.15406166804473 670.1195076128873 301.37434131914665Q676.5297640801442 293.6237584996452 683.7558713705064 286.60161391505926Q690.9819786608687 279.55033180107677 697.508785245712 275.79159050891246L697.508785245712 275.79159050891246Q702.9575032428803 272.44077462830097 707.3572701817702 272.44077462830097L707.3572701817702 272.44077462830097Q710.3001606508291 272.44077462830097 712.1941000616096 274.3055765096848Q714.0589019429933 276.1995159204652 714.0589019429933 280.3953201535788L714.0589019429933 280.3953201535788Q714.0589019429933 282.08529685858286 713.854939237217 283.9792362693633Q713.6509765314406 285.8440381507471 713.009950884715 287.73797756152754L713.009950884715 287.73797756152754Q712.6020254731623 289.2239915607553 712.1941000616096 290.7974181481729Q711.7570371206602 292.3708447355904 711.3491117091075 293.82772120542154L711.3491117091075 293.82772120542154Q710.3001606508291 299.27643920258987 708.9306967691879 304.8417073173447Q707.5612328875466 310.4069754320995 706.1043564177155 316.05965613504424L706.1043564177155 316.05965613504424Q704.6183424184878 321.9454370731618 703.8899041835723 328.0351807170559Q703.1614659486567 334.0957868315532 703.1614659486567 340.8265561221729L703.1614659486567 340.8265561221729Q703.1614659486567 357.4058103488508 712.8059881789386 357.4058103488508L712.8059881789386 357.4058103488508Q721.634659586115 357.4058103488508 729.7931678171692 341.2344815337256L729.7931678171692 341.2344815337256Q730.4341934638949 339.9815677696709 731.4831445221733 339.9815677696709L731.4831445221733 339.9815677696709Q732.124170168899 339.9815677696709 732.124170168899 340.62259341639657L732.124170168899 340.62259341639657L731.891069933726 340.62259341639657L731.891069933726 341.67154447467493Q730.4341934638949 345.2263230610628 728.3362913473381 349.10161447081356Q726.2383892307813 352.9769058805643 723.2954987617226 355.91979634962314L723.2954987617226 355.91979634962314Q719.944682881111 359.2706122302347 716.9143798238623 360.2321507003232Q713.854939237217 361.16455164101507 710.9120487681582 361.16455164101507L710.9120487681582 361.16455164101507Q693.3129810125985 361.16455164101507 693.3129810125985 338.29159106466676L693.3129810125985 338.29159106466676Q693.3129810125985 334.73681247827886 694.4493446590667 327.8020804818829Q695.6148458349317 320.89648601488346 698.1206733630411 310.4069754320995L698.1206733630411 310.4069754320995Q702.9575032428803 290.6808680305864 702.9575032428803 286.89298920902553L702.9575032428803 286.89298920902553Q702.9575032428803 284.7950870924687 702.2290650079648 283.5421733284139Q701.4714892436526 282.2892595643592 699.1696244213194 282.2892595643592L699.1696244213194 282.2892595643592Q689.3211394852613 282.2892595643592 667.4971299671913 313.75779131271105L667.4971299671913 313.75779131271105Q657.8526077369095 327.59811777610656 650.8304631523235 339.66105494630807Q643.779181038341 351.7239921165096 639.5833768052274 362.21350269929354L639.5833768052274 362.21350269929354Q639.3794140994511 363.2624537575719 637.2815119828942 362.7379782284327Q635.1836098663375 362.21350269929354 633.289670455557 360.9605889352387Q631.4248685741733 359.707675171184 631.4248685741733 358.65872411290565L631.4248685741733 358.65872411290565L631.4248685741733 358.4547614071293Q635.6206728072868 349.8300527057291 638.3304630411726 344.70184753192365Q641.0693908044551 339.5736423581182 643.3712556267883 335.4652507131945Q645.6731204491214 331.38599659766743 648.2080855066275 326.0246911886889Q650.7139130347371 320.6925233091071 654.5017918562979 311.86385190193056L654.5017918562979 311.86385190193056Q656.3665937376817 307.05615955148795 658.6975960894115 299.0724764968135Q660.9994609117446 291.0887934421391 660.9994609117446 284.387161680916L660.9994609117446 284.387161680916Q660.9994609117446 279.55033180107677 659.2220716185507 276.63657886141453Q657.4155447959602 273.69368839235574 652.8118151512938 273.69368839235574L652.8118151512938 273.69368839235574Q649.2570365649059 273.69368839235574 644.624169390843 277.24846697874364L644.624169390843 277.24846697874364Q640.0204397461767 281.24030850608085 635.1836098663375 287.4174647381647Q630.3759175158948 293.6237584996452 625.7430503418319 301.1703786133703L625.7430503418319 301.1703786133703Q623.4411855194987 304.95825743493117 621.1393206971657 308.7169987270954Q618.8374558748326 312.50487754865634 616.7395537582757 316.05965613504424L616.7395537582757 316.05965613504424Q612.5437495251622 323.402313542993 609.0763835269642 329.37550706930045Q605.6090175287661 335.37783812500464 603.5111154122094 338.52469129983973L603.5111154122094 338.52469129983973Q599.5192738848721 344.17737200278447 595.8479451808978 351.7239921165096Q592.1766164769233 359.2706122302347 588.4178751847592 366.61326963818345Q584.6299963631982 373.9559270461322 580.4341921300847 379.20068233752414L580.4341921300847 379.20068233752414Q577.2873389552494 382.988561159085 573.936523074638 382.988561159085ZM749.7232379244587 366.0013815208544L749.7232379244587 366.0013815208544Q738.825801930122 366.0013815208544 733.0565711095909 358.54217399531905Q727.2873402890598 351.11210399918053 727.2873402890598 339.9815677696709L727.2873402890598 339.9815677696709Q727.2873402890598 326.9862296587774 733.9889720502829 318.3615209573773L733.9889720502829 318.3615209573773Q738.825801930122 311.6598891961542 746.5763847496235 309.15406166804473L746.5763847496235 309.15406166804473Q748.470324160404 308.7169987270954 750.0437507478216 308.3964859037326Q751.6171773352391 308.10511060976637 753.1031913344668 308.10511060976637L753.1031913344668 308.10511060976637Q758.7558720374116 308.10511060976637 761.7861750946602 311.13541366701503Q764.8456156813056 314.16571672426375 764.8456156813056 318.5946211925503L764.8456156813056 318.5946211925503Q764.8456156813056 323.8393764839423 760.4458487424156 329.2880944811106L760.4458487424156 329.2880944811106Q758.3479466258589 331.7939220092201 754.7640305100743 333.1633858908613Q751.2092519236865 334.5328497725025 747.6253358079019 334.5328497725025L747.6253358079019 334.5328497725025Q744.2745199272904 334.5328497725025 741.1276667524552 333.04683577327484Q737.98081357762 331.5899593034438 736.3199744020126 328.6470688343849L736.3199744020126 328.6470688343849Q735.0379231085612 330.74497095094165 734.6299976970085 333.36734859663767Q734.2220722854559 335.9897262423337 734.2220722854559 339.5736423581182L734.2220722854559 339.5736423581182Q734.2220722854559 348.1692135301217 737.98081357762 355.0748079971211Q741.768692399181 362.0095399935171 750.7721889827371 362.0095399935171L750.7721889827371 362.0095399935171Q758.5519093316352 362.0095399935171 762.7477135647488 357.28926023126434Q766.9435177978623 352.5689804690116 766.9435177978623 348.37317623589803L766.9435177978623 348.37317623589803Q766.9435177978623 345.0223603552865 764.4085527403562 343.76944659123177L764.4085527403562 343.76944659123177Q763.3596016820778 343.1284209445061 763.3596016820778 342.283432592004L763.3596016820778 342.283432592004Q763.3596016820778 341.03051882794927 764.6416529755292 341.03051882794927L764.6416529755292 341.03051882794927Q766.739555092086 341.03051882794927 768.5169443852799 343.2449710620926Q770.2943336784739 345.4302857668392 770.2943336784739 348.7811016474507L770.2943336784739 348.7811016474507Q770.2943336784739 357.17271011367785 764.0006273288035 361.6016145819644Q757.7069209791332 366.0013815208544 749.7232379244587 366.0013815208544ZM748.0623987488513 329.89998259843964L748.0623987488513 329.89998259843964Q750.3642635711844 329.89998259843964 752.782678511104 329.1715443635241Q755.2010934510237 328.4431061286086 756.6579699208548 326.5491667178281L756.6579699208548 326.5491667178281Q759.6008603899136 322.9943881314402 759.6008603899136 319.2065093098793L759.6008603899136 319.2065093098793Q759.6008603899136 316.2636188408206 758.1148463906859 314.3988169594367Q756.6579699208548 312.50487754865634 753.7150794517959 312.50487754865634L753.7150794517959 312.50487754865634L752.4621656877412 312.50487754865634Q747.0134476905729 312.50487754865634 743.6626318099613 315.8556934292678L743.6626318099613 315.8556934292678Q739.8747529884005 319.002546604103 738.1847762833963 324.04333918971867L738.1847762833963 324.04333918971867Q738.1847762833963 326.5491667178281 741.2442168700417 328.2391434228322Q744.2745199272904 329.89998259843964 748.0623987488513 329.89998259843964ZM790.632329197316 364.95243046257593L790.632329197316 364.95243046257593Q785.387573905924 364.95243046257593 781.8327953195362 361.6016145819644L781.8327953195362 361.6016145819644Q773.6451495590854 354.66688258556843 773.6451495590854 334.32888706672617L773.6451495590854 334.32888706672617Q773.6451495590854 327.3941550703301 774.8980633231401 320.2554603681578Q776.1801146165915 313.1167656659854 778.2780167331483 306.0072084932096L778.2780167331483 306.0072084932096Q782.8817463778146 290.27294261903364 791.477317549818 278.50138074279835L791.477317549818 278.50138074279835Q796.9260355469864 270.95476062907323 803.656804837606 270.95476062907323L803.656804837606 270.95476062907323Q808.2605344822723 270.95476062907323 811.4073876571076 274.94660215641045L811.4073876571076 274.94660215641045Q814.5542408319427 279.34636909530036 814.5542408319427 286.89298920902553L814.5542408319427 286.89298920902553L814.5542408319427 289.631916972308Q814.5542408319427 290.47690532481005 814.4668282437528 291.2053435597256Q814.3502781261664 291.9337817946411 814.14631542039 292.7787701471432L814.14631542039 292.7787701471432Q809.7465484815001 322.5573251904909 780.9878069670342 345.0223603552865L780.9878069670342 345.0223603552865Q782.8817463778146 360.552663523686 791.6812802555944 360.552663523686L791.6812802555944 360.552663523686Q796.5181101354337 360.552663523686 803.2197418966567 355.7158336438468L803.2197418966567 355.7158336438468Q810.5623993046055 350.6750410582312 817.9050567125543 338.9326167113924L817.9050567125543 338.9326167113924Q818.5460823592799 338.0876283588904 818.7500450650564 338.0876283588904L818.7500450650564 338.0876283588904Q819.391070711782 338.0876283588904 819.391070711782 339.5736423581182L819.391070711782 339.5736423581182Q819.391070711782 340.18553047544725 818.9540077708327 341.03051882794927L818.9540077708327 341.03051882794927Q810.7954995397785 356.76478470212516 799.6649633102688 362.4174654050699L799.6649633102688 362.4174654050699Q795.0612336656026 364.95243046257593 790.632329197316 364.95243046257593ZM780.5798815554815 335.9897262423337L780.5798815554815 341.2344815337256Q805.1136813074372 317.74963284004826 809.1055228347744 292.5748074413668L809.1055228347744 292.5748074413668Q809.5134482463271 290.0398423838607 809.7465484815001 287.854527679114Q809.9505111872764 285.64007544497076 809.9505111872764 283.74613603419033L809.9505111872764 283.74613603419033Q809.9505111872764 279.55033180107677 808.9015601289981 276.92795415538075Q807.8526090707196 274.3055765096848 805.1136813074372 274.3055765096848L805.1136813074372 274.3055765096848Q799.8689260160453 274.3055765096848 793.7791823721512 284.387161680916L793.7791823721512 284.387161680916Q790.2244037857633 289.8358796780843 787.7185762576538 296.24613614534115Q785.1836112001478 302.6272550832014 783.2896717893673 310.20301272632315L783.2896717893673 310.20301272632315Q780.5798815554815 320.89648601488346 780.5798815554815 335.9897262423337L780.5798815554815 335.9897262423337ZM835.3292992917343 361.16455164101507L835.3292992917343 361.16455164101507Q827.1416535312835 361.16455164101507 821.4889728283388 356.76478470212516L821.4889728283388 356.76478470212516Q815.3992291844447 351.9279548222859 815.3992291844447 344.58529741433716L815.3992291844447 344.58529741433716Q815.3992291844447 337.6797029473377 818.3421196535037 332.8428730674985L818.3421196535037 332.8428730674985Q821.0519098873895 328.4431061286086 826.5297654139544 326.75312942360443L826.5297654139544 326.75312942360443Q825.6847770614525 324.45126460127136 825.6847770614525 322.79042542566384L825.6847770614525 322.79042542566384Q825.6847770614525 319.002546604103 828.6276675305112 315.4477680177151L828.6276675305112 315.4477680177151Q831.7745207053463 312.067814607707 836.3782503500126 310.8149008436522L836.3782503500126 310.8149008436522Q837.427201408291 310.61093813787585 838.4761524665695 310.49438802028936Q839.5251035248479 310.4069754320995 840.5740545831262 310.4069754320995L840.5740545831262 310.4069754320995Q848.9656630493533 310.4069754320995 855.2593693990237 317.9535955458246L855.2593693990237 317.9535955458246Q861.3491130429177 325.2962529537734 861.3491130429177 334.5328497725025L861.3491130429177 334.5328497725025Q861.3491130429177 345.4302857668392 853.5693926940196 353.4139688215136L853.5693926940196 353.4139688215136Q846.0227725802945 361.16455164101507 835.3292992917343 361.16455164101507ZM835.3292992917343 358.01769846617987L835.3292992917343 358.01769846617987Q843.5169450521851 357.8137357604035 849.3735884609061 350.87900376400756L849.3735884609061 350.87900376400756Q855.0554066932474 344.17737200278447 855.0554066932474 335.581800830781L855.0554066932474 335.581800830781Q855.0554066932474 328.0351807170559 851.4714905774629 322.79042542566384L851.4714905774629 322.79042542566384Q847.5087865795223 316.90464448754625 840.9819799946789 316.90464448754625L840.9819799946789 316.90464448754625Q836.3782503500126 316.90464448754625 833.2313971751774 320.05149766238145L833.2313971751774 320.05149766238145Q829.8805812945659 323.402313542993 829.8805812945659 329.08413177533424L829.8805812945659 329.08413177533424Q829.8805812945659 331.9978847149965 831.5414204701734 334.32888706672617L831.5414204701734 334.32888706672617Q833.4353598809538 337.47574024156137 836.582213055789 337.47574024156137L836.582213055789 337.47574024156137L837.0192759967383 337.47574024156137Q839.3211408190714 337.47574024156137 842.0309310529574 334.9407751840552L842.0309310529574 334.9407751840552L842.4679939939067 334.73681247827886L842.671956699683 334.9407751840552Q842.671956699683 335.581800830781 842.2640312881304 335.9897262423337L842.2640312881304 335.9897262423337Q839.117178113295 340.18553047544725 835.3292992917343 340.18553047544725L835.3292992917343 340.18553047544725Q829.2395556478402 340.18553047544725 825.480814355676 331.5899593034438L825.480814355676 331.5899593034438Q820.6439844758368 334.73681247827886 820.6439844758368 341.8755071804513L820.6439844758368 341.8755071804513Q820.6439844758368 348.1692135301217 824.1987630622245 352.77294317478794L824.1987630622245 352.77294317478794Q828.1906045895619 358.01769846617987 835.3292992917343 358.01769846617987ZM934.338624181456 384.8825005698654L934.338624181456 384.8825005698654Q927.4330297144566 384.8825005698654 922.1882744230645 381.93961010080665L922.1882744230645 381.93961010080665Q917.7885074841746 379.63774527847346 914.2045913683901 375.9664165744991Q910.6498127820023 372.2950878705247 908.3479479596691 368.7111717547402L908.3479479596691 368.7111717547402Q905.2010947848339 363.46641646334825 903.3071553740535 358.65872411290565Q901.413215963273 353.8218942330663 899.7232392582689 347.1202624718433L899.7232392582689 347.1202624718433Q898.9073884351635 352.36501776323524 897.2174117301595 357.69718564281703Q895.5274350251555 363.05849105179556 892.3805818503201 366.72981975576994Q889.233728675485 370.4011484597443 883.5810479725403 370.4011484597443L883.5810479725403 370.4011484597443Q875.5973649178659 370.4011484597443 871.1975979789761 364.5153675216266Q866.7978310400861 358.65872411290565 866.7978310400861 347.528187883396L866.7978310400861 347.528187883396Q866.7978310400861 339.77760506389455 869.9446842149213 332.8428730674985Q873.0915373897565 325.93727860049904 878.8607682102876 321.30441142643616Q884.6299990308188 316.7006817817699 892.1766191445438 315.8556934292678L892.1766191445438 315.8556934292678Q891.1276680862654 308.10511060976637 890.8071552629026 301.1703786133703Q890.5157799689364 294.23564661697424 890.5157799689364 287.73797756152754L890.5157799689364 287.73797756152754Q890.5157799689364 280.8323830945281 890.8071552629026 275.47107768554963Q891.1276680862654 270.1097722765712 891.9726564387674 266.5549936901833L891.9726564387674 266.5549936901833Q893.0216074970458 259.8533619289602 896.1684606718811 256.4734085189521Q899.3153138467162 253.12259263834056 902.8700924331042 253.12259263834056L902.8700924331042 253.12259263834056Q907.7069223129433 253.12259263834056 912.0192766636435 259.0957861646481Q916.3024934849468 265.0981172203522 916.3024934849468 276.84054156719094L916.3024934849468 276.84054156719094Q916.3024934849468 283.9792362693633 915.5740552500313 290.88483073636274Q914.8456170151157 297.81956273275875 914.2045913683901 301.37434131914665L914.2045913683901 301.37434131914665Q911.0577381935549 317.74963284004826 903.5111180798298 339.1365794171689L903.5111180798298 339.1365794171689Q906.4540085488886 351.9279548222859 909.6882743119137 360.2321507003232Q912.9516776043354 368.50720904896383 917.1474818374489 373.1400762230267L917.1474818374489 373.1400762230267Q920.4982977180605 376.89881751519096 924.694101951174 379.7251578666633Q928.8899061842876 382.5806357475323 933.0857104174011 382.78459845330866L933.0857104174011 382.78459845330866Q935.6206754749073 382.78459845330866 938.5344284145694 381.93961010080665Q941.4773188836284 381.0946217483045 942.5262699419068 376.6948548094146L942.5262699419068 376.6948548094146Q942.730232647683 375.8498664569126 943.7791837059615 375.64590375113625Q944.8281347642398 375.4419410453599 944.8281347642398 376.6948548094146L944.8281347642398 376.6948548094146Q944.8281347642398 378.38483151441875 944.2162466469108 379.521195160887Q943.5752210001851 380.6866963367518 942.9633328828561 381.7356473950303L942.9633328828561 381.7356473950303Q941.4773188836284 383.3964865706377 939.2920041788817 384.15406233494986Q937.0775519447384 384.8825005698654 934.338624181456 384.8825005698654ZM902.2582043157751 333.48389871422415L902.2582043157751 333.48389871422415Q905.2010947848339 323.60627624876935 907.3864094895805 315.53518060590494Q909.6008617237238 307.46408496304065 910.8537754877785 300.7624532018176L910.8537754877785 300.7624532018176Q911.2617008993313 297.81956273275875 911.902726546057 291.2053435597256Q912.5437521927827 284.59112438669234 912.5437521927827 278.7344809779713L912.5437521927827 278.7344809779713Q912.5437521927827 269.7018468650185 910.445850076226 265.18552980854207Q908.3479479596691 260.6692127520657 905.812982902163 260.6692127520657L905.812982902163 260.6692127520657Q901.8211413748257 260.6692127520657 900.568227610771 269.2939214534658L900.568227610771 269.2939214534658Q898.6742881999905 283.74613603419033 898.6742881999905 295.721660616202L898.6742881999905 295.721660616202Q898.6742881999905 305.1622201407075 899.5192765524926 314.16571672426375Q900.3642649049946 323.19835083721654 902.2582043157751 333.48389871422415ZM885.4749873833207 365.79741881507795L885.4749873833207 365.79741881507795Q889.8747543222107 365.1563931683523 892.1766191445438 361.0771390528252Q894.478483966877 356.9687474079015 895.3234723193791 351.6365795283197Q896.1684606718811 346.2752741193412 896.1684606718811 342.283432592004L896.1684606718811 342.283432592004Q896.1684606718811 336.426789183283 895.0029594960162 330.6575583627518Q893.8665958495479 324.8883275422207 892.8176447912695 321.9454370731618L892.8176447912695 321.9454370731618L890.9237053804891 322.5573251904909Q882.7360596200383 325.2962529537734 879.0647309160639 333.2799360084478Q875.3934022120895 341.2344815337256 875.3934022120895 349.8300527057291L875.3934022120895 349.8300527057291Q875.3934022120895 359.2706122302347 878.7442180927011 362.65056564024286L878.7442180927011 362.65056564024286Q881.8910712675363 366.20534422663076 885.4749873833207 365.79741881507795ZM941.9143818245776 403.1225939721508L941.9143818245776 403.1225939721508Q936.4365262980127 403.1225939721508 931.5122838299835 401.14124197318057Q926.5880413619545 399.1307524448136 923.2372254813429 395.168048446873L923.2372254813429 395.168048446873Q919.2453839540058 391.1762069195358 919.2453839540058 383.19252386486136L919.2453839540058 383.19252386486136Q919.2453839540058 376.2869293978619 922.5961998346172 371.04217410647Q925.9470157152288 365.79741881507795 933.726736064127 365.79741881507795L933.726736064127 365.79741881507795Q938.1265030030168 365.79741881507795 941.5938690012148 368.186696225601Q945.0612349994128 370.60511116552067 945.0612349994128 375.64590375113625L945.0612349994128 375.64590375113625Q945.0612349994128 380.4827336309755 942.0017944127675 382.6680483357222Q938.9714913555188 384.8825005698654 936.02860088646 384.8825005698654L936.02860088646 384.8825005698654Q934.338624181456 384.8825005698654 934.338624181456 383.833549511587L934.338624181456 383.833549511587Q934.338624181456 382.5806357475323 936.02860088646 382.5806357475323L936.02860088646 382.5806357475323Q938.1265030030168 382.5806357475323 940.2244051195736 380.6866963367518Q942.3223072361304 378.79275692597145 942.3223072361304 375.64590375113625L942.3223072361304 375.64590375113625Q942.3223072361304 371.8580249295754 939.8164797080208 370.28459834215784Q937.2815146505147 368.7111717547402 933.9306987699033 368.7111717547402L933.9306987699033 368.7111717547402Q928.6859434785113 368.7111717547402 926.471491244368 373.1400762230267Q924.2861765396214 377.5398431619166 924.2861765396214 382.78459845330866L924.2861765396214 382.78459845330866Q924.2861765396214 385.93145162814386 925.6556404212625 389.2822675087553Q926.9959667735072 392.63308338936685 929.7348945367896 394.7309855059237L929.7348945367896 394.7309855059237Q934.9796498281816 398.92678973903725 942.5262699419068 398.92678973903725L942.5262699419068 398.92678973903725Q951.5589040548596 398.92678973903725 957.1241721696143 394.11909738859464Q962.6603027549725 389.2822675087553 965.1952678124786 381.41513457166735Q967.7010953405882 373.5480016345794 967.7010953405882 364.5153675216266L967.7010953405882 364.5153675216266Q967.7010953405882 362.0095399935171 966.8561069880861 356.9687474079015Q966.0402561649807 351.9279548222859 964.554242165753 347.2076750600332Q963.0973656959218 342.4873952977803 960.999463579365 341.2344815337256L960.999463579365 341.2344815337256Q958.0565731103063 348.37317623589803 953.0157805246906 353.61793152728995Q947.974987939075 358.862686818682 939.5833794728479 358.862686818682L939.5833794728479 358.862686818682Q930.3759201835153 358.862686818682 926.7920040677309 353.8218942330663Q923.2372254813429 348.7811016474507 923.2372254813429 342.0794698862276L923.2372254813429 342.0794698862276Q923.2372254813429 336.19368894811004 926.1801159504018 331.26944648008083Q929.093868890064 326.34520401205174 932.9982978292114 321.82888695557534Q936.873589238962 317.31256989909895 939.8164797080208 313.0293530777955Q942.730232647683 308.7169987270954 942.730232647683 304.3172317882055L942.730232647683 304.3172317882055Q942.730232647683 299.7135021435392 940.5449179429363 296.333548733531Q938.3304657087931 292.9827328529195 933.5227733583505 292.9827328529195L933.5227733583505 292.9827328529195Q929.3269691252369 292.9827328529195 926.9959667735072 295.5176979104256L926.9959667735072 295.5176979104256Q924.4901392453976 298.22748814431145 924.4901392453976 301.578304024923L924.4901392453976 301.578304024923Q924.4901392453976 302.8603553183744 924.8980646569504 304.20068167061896Q925.3351275978998 305.5701455522602 925.9470157152288 307.05615955148795L925.9470157152288 307.05615955148795L926.5880413619545 308.30907331554266L926.9959667735072 308.92096143287176Q927.6369924202329 309.5619870795975 927.6369924202329 309.9699124911502L927.6369924202329 309.9699124911502Q927.6369924202329 310.8149008436522 926.9959667735072 311.3393763727914Q926.3840786561782 311.86385190193056 925.9470157152288 311.6598891961542L925.9470157152288 311.6598891961542Q923.8491135986719 310.61093813787585 922.2756870112544 307.34753484545416Q920.7022604238368 304.1132690824291 920.7022604238368 300.32539026086823L920.7022604238368 300.32539026086823Q920.7022604238368 298.0235254385351 921.5472487763388 295.80907320439184Q922.3922371288409 293.6237584996452 924.2861765396214 291.72981908886476L924.2861765396214 291.72981908886476Q928.4819807727349 288.17504050247686 934.338624181456 288.17504050247686L934.338624181456 288.17504050247686Q940.6323305311262 288.17504050247686 944.0122839411345 292.7787701471432Q947.3630998217459 297.38249979180944 947.3630998217459 304.7251571997582L947.3630998217459 304.7251571997582Q947.3630998217459 310.20301272632315 944.8281347642398 315.12725519435224Q942.3223072361304 320.05149766238145 939.0589039437086 324.6552273070477Q935.8246381806837 329.2880944811106 933.2896731231776 334.2123369491397Q930.783845595068 339.1365794171689 930.783845595068 344.58529741433716L930.783845595068 344.58529741433716Q930.783845595068 348.37317623589803 932.4738223000721 351.84054223409606Q934.1346614756796 355.3079082322941 938.9714913555188 355.3079082322941L938.9714913555188 355.3079082322941Q945.0612349994128 355.3079082322941 949.0239389973535 352.0445049398724Q953.0157805246906 348.7811016474507 955.230232758834 343.6528964736453Q957.4155474635807 338.52469129983973 958.697598757032 332.52236024413565Q959.9505125210867 326.5491667178281 960.5624006384157 321.30441142643616L960.5624006384157 321.30441142643616Q960.999463579365 318.15755825160096 961.5239391085044 315.9722435468544Q962.0484146376435 313.75779131271105 962.8934029901454 312.30091484288L962.8934029901454 312.30091484288Q964.3502794599766 309.5619870795975 966.8561069880861 309.5619870795975L966.8561069880861 309.5619870795975Q971.0519112211996 309.5619870795975 971.0519112211996 315.2146677825421L971.0519112211996 315.2146677825421Q971.0519112211996 320.2554603681578 968.3421209873138 326.22865389446525Q965.6031932240314 332.23098495016944 963.3013284016981 336.8347145948357L963.3013284016981 336.8347145948357Q967.7010953405882 345.2263230610628 971.1684613387862 352.8894932923744Q974.6358273369842 360.552663523686 974.6358273369842 370.4011484597443L974.6358273369842 370.4011484597443L974.6358273369842 373.1400762230267Q974.6358273369842 381.53168468925384 970.0029601629212 388.3498665680634Q965.399230518255 395.168048446873 957.9400229927197 399.1307524448136Q950.5099529965812 403.1225939721508 941.9143818245776 403.1225939721508Z " fill="#243665" transform="matrix(0.8977712105036935,0,0,0.8977712105036932,0,5.420982903037924)"/></g></svg>